<?xml version="1.0" encoding="utf-8"?>
<!-- Generator: Adobe Illustrator 28.2.0, SVG Export Plug-In . SVG Version: 6.00 Build 0)  -->
<svg version="1.1" id="Layer_1" xmlns="http://www.w3.org/2000/svg" xmlns:xlink="http://www.w3.org/1999/xlink" x="0px" y="0px"
	 viewBox="0 0 417 529" style="enable-background:new 0 0 417 529;" xml:space="preserve">
<style type="text/css">
	.st0{fill-rule:evenodd;clip-rule:evenodd;fill:url(#SVGID_1_);}
	.st1{fill-rule:evenodd;clip-rule:evenodd;fill:#B3B1B3;}
	.st2{fill:#D5D4D3;}
	.st3{fill:#979797;}
	.st4{fill:#F8DF38;}
	.st5{fill:#030202;}
</style>
<g>
	
		<linearGradient id="SVGID_1_" gradientUnits="userSpaceOnUse" x1="111.3232" y1="314.2108" x2="230.0671" y2="195.467" gradientTransform="matrix(1 0 0 -1 0 448)">
		<stop  offset="0.1" style="stop-color:#0C1623"/>
		<stop  offset="0.72" style="stop-color:#2FB34E"/>
	</linearGradient>
	<path class="st0" d="M338.5,144.1l-212,212L105,343.9c-3.9-2.2-6.3-6.4-6.3-10.9V151.6c0-6.9,5.6-12.5,12.4-12.5h217.5
		C332.7,139.1,336.3,141.1,338.5,144.1z"/>
	<path class="st1" d="M328.6,117.3H111.1c-0.4,0-0.9,0-1.3,0c-18.3,0.7-32.9,15.8-32.9,34.3V333c0,12.4,6.6,23.8,17.4,29.9
		L203,424.6c10.4,5.9,23.2,5.9,33.6,0l108.8-61.7c10.7-6.1,17.4-17.5,17.4-29.9V151.6C362.8,132.7,347.5,117.3,328.6,117.3z
		 M341,333c0,4.5-2.4,8.6-6.3,10.9l-22.9,13L226,405.6c-3.8,2.2-8.4,2.2-12.2,0l-61.4-34.8L105,343.9c-3.9-2.2-6.3-6.4-6.3-10.9
		V151.6c0-6.9,5.6-12.5,12.4-12.5h217.5c6.9,0,12.4,5.6,12.4,12.5V333z"/>
	<g>
		<path class="st2" d="M365.4,481.2h-296c-1.7,0-3-1.4-3-3v-57.4c0-1.7,1.4-3,3-3h296c1.7,0,3,1.4,3,3v57.4
			C368.5,479.8,367.1,481.2,365.4,481.2z"/>
	</g>
	<g>
		<path class="st3" d="M260,134.8c0.4-0.7,0.8-1.3,1.1-2c1.2-3,2.6-6,4-8.9h-3.5c-0.4,2.1-0.7,4.3-1.1,6.4
			C260.3,131.8,260,133.2,260,134.8z"/>
		<path d="M364.4,57c-0.6-4.4-3.3-5.8-6.7-3.4c-7.4,5-14.6,10.3-22.2,15c-9.4,5.8-19,11.2-28.6,16.7c-8,4.6-16.2,8.9-23.5,14.8
			c-8.1,6.6-13.9,14.9-18.4,23.9c-1.4,2.9-2.8,5.9-4,8.9c-0.3,0.7-0.7,1.4-1.1,2c0-1.6,0.3-3,0.6-4.5c0.4-2.1,0.7-4.3,1.1-6.4
			c0.5-3.3,1.1-6.7,1.8-10c1.9-9.3,5-18.2,8.5-26.9c2-4.9,4.1-9.8,5.3-15c2.2-9.3,4.2-18.8,5.5-28.3s1.8-19.2,0.2-28.8
			c-0.5-3.4-3.1-6.2-7-3.3c-3.9,3-7.5,6.2-11.1,9.5c-10,9-19.3,18.6-26.4,30.2c-5.4,8.9-9.6,18.4-12,28.6
			c-1.6,7.2-3.2,14.4-4.4,21.6c-1,6.1-2.1,12.3-2.2,18.5c0,1.3,0,2.6,0.1,3.9c0.2,3.3,0.6,6.6,1,9.9c0.1,1,0.2,2,0.3,3
			c0.1,0.7-0.1,1.5-0.1,2.3c-5.2,0.8-10.4,1.3-15.4,2.4c-7.3,1.6-14.6,3.2-21.8,5.3c-9.4,2.8-17.5,8.3-25.2,14.3
			c-12.6,9.8-23.8,21.1-33.7,33.7c-3.3,4.2-5.8,9.8-5.1,15.4c0,0.2,0.6,10.1,7.7,13.1c1.5,15.6,12.9,20.2,25.7,24.2
			c5.5,1.7,11.8,5,17.3,6.5c8.1,2.3,11.2,3.8,12.7,12.4c1.3,5.7-2.4,28.8-8.9,39.4c-12.9,21-26.1,35.8-32.5,59l71.6,40.6
			c4,2.3,8.9,2.3,12.9,0l99.7-56.6c-2.2-9.2-15.3-31.8-21.3-40.5c-7-9.9-15.2-22.6-23.4-43.6c-6.8-17.3-12.8-33.7,0.7-53.9
			c3.2-4.8,5-12.3,5.8-19.1c0.7-6.1-1-15.5-3.8-20.8c0,0-2.6-7-2.1-7.7c3.5-6.6,14.1-7.7,20.1-12c5.9-4.2,11.5-8.6,16.7-13.4
			c3.8-3.5,7.4-7.1,10.6-11.1c0.8-1,1.5-2,2.3-2.9c6.6-8.2,13.2-16.5,19.4-25.1c4.5-6.2,9.4-12.4,11.3-20.2
			C364.2,71.5,365.4,64.4,364.4,57z"/>
	</g>
	<path class="st4" d="M200.1,165.7C200.1,165.7,200,165.6,200.1,165.7c-0.1-0.1-0.1-0.2-0.1-0.2c0.1,0.4-7.3-3.3-14.2-0.1
		c-5.1,2.4-9.2,6.2-12.8,10.5c-0.3,0.4,3.5,2.5,4.9,3c1.5,0.5,3.1,1,4.7,1.3c3.2,0.6,6.5,0.1,9.3-1.5
		C200.6,173.9,199.7,165.9,200.1,165.7z"/>
	<g>
		<g>
			<path class="st5" d="M113.1,458.9v-16.8h8.6c3.4,0,5.1,1.9,5.1,4.9c0,2-1,3.5-2.6,4.1v0.2h0.6c1.3,0,1.9,0.7,1.9,2.2v5.5h-3.8
				v-5.9h-6.3v5.9L113.1,458.9L113.1,458.9z M116.8,450.1h3.9c1.4,0,2.2-0.7,2.2-1.9v-1.1c0-1.2-0.7-1.9-2.2-1.9h-3.9V450.1z"/>
			<path class="st5" d="M130,458.9v-16.8h11.8v3.2h-8.1v3.4h7v3h-7v4h8.1v3.2L130,458.9L130,458.9z"/>
			<path class="st5" d="M148.5,458.9l-5.9-16.8h4.1l2.3,6.9l1.8,6.2h0.2l1.8-6.2l2.2-6.9h4.1l-5.9,16.8H148.5z"/>
			<path class="st5" d="M159.5,450.6c0-2.6,0.7-4.8,2.2-6.3c1.5-1.6,3.4-2.4,5.9-2.4c2.5,0,4.5,0.8,5.9,2.4c1.5,1.5,2.2,3.6,2.2,6.3
				c0,2.6-0.7,4.8-2.2,6.3c-1.4,1.5-3.4,2.3-5.9,2.3c-2.5,0-4.5-0.8-6-2.3C160.2,455.4,159.5,453.3,159.5,450.6z M163.4,451.8
				c0,2.6,1.7,4.1,4.2,4.1c2.6,0,4.2-1.7,4.2-4.1v-2.4c0-2.6-1.7-4.1-4.2-4.1c-2.6,0-4.2,1.6-4.2,4.1V451.8z"/>
			<path class="st5" d="M178.4,458.9v-16.8h3.7v13.5h6.8v3.3H178.4z"/>
			<path class="st5" d="M193.6,458.9l-5.9-16.8h4.1l2.3,6.9l1.8,6.2h0.2l1.8-6.2l2.2-6.9h4.1l-5.9,16.8H193.6z"/>
			<path class="st5" d="M205.5,458.9v-16.8h11.8v3.2h-8.1v3.4h7v3h-7v4h8.1v3.2L205.5,458.9L205.5,458.9z"/>
			<path class="st5" d="M220.3,458.9v-16.8h8.6c3.4,0,5.1,1.9,5.1,4.9c0,2-1,3.5-2.6,4.1v0.2h0.6c1.3,0,1.9,0.7,1.9,2.2v5.5h-3.8
				v-5.9H224v5.9L220.3,458.9L220.3,458.9z M224,450.1h3.9c1.4,0,2.2-0.7,2.2-1.9v-1.1c0-1.2-0.7-1.9-2.2-1.9H224V450.1z"/>
			<path class="st5" d="M244,458.9v-16.8h8.6c3.4,0,5.1,1.9,5.1,4.9c0,2-1,3.5-2.6,4.1v0.2h0.6c1.3,0,1.9,0.7,1.9,2.2v5.5H254v-5.9
				h-6.3v5.9L244,458.9L244,458.9L244,458.9z M247.7,450.1h3.9c1.4,0,2.2-0.7,2.2-1.9v-1.1c0-1.2-0.7-1.9-2.2-1.9h-3.9V450.1z"/>
			<path class="st5" d="M271.4,458.9l-1-2.9h-6.5l-1,2.9H259l5.9-16.8h4.3l6.2,16.8H271.4z M264.9,453.2h4.6l-0.6-1.9l-1.5-5.2h-0.2
				l-1.6,5.2L264.9,453.2z"/>
			<path class="st5" d="M277.2,458.9v-16.8h8.6c3,0,4.8,1.7,4.8,4.2c0,1.8-0.9,3.1-2.4,3.7v0.2c1.9,0.4,2.8,1.9,2.8,4
				c0,1.4-0.4,2.5-1.4,3.4c-1,0.8-2.3,1.2-3.9,1.2L277.2,458.9L277.2,458.9z M280.8,449h4.2c1.1,0,1.9-0.6,1.9-1.6v-1
				c0-1-0.7-1.6-1.9-1.6h-4.2V449z M280.8,456.2h4.1c1.5,0,2.3-0.7,2.3-1.8v-0.8c0-1.2-0.7-1.9-2-1.9h-4.4L280.8,456.2L280.8,456.2z
				"/>
			<path class="st5" d="M293.8,458.9v-16.8h8.6c3,0,4.8,1.7,4.8,4.2c0,1.8-0.9,3.1-2.4,3.7v0.2c1.9,0.4,2.8,1.9,2.8,4
				c0,1.4-0.4,2.5-1.4,3.4c-1,0.8-2.3,1.2-3.9,1.2L293.8,458.9L293.8,458.9z M297.4,449h4.2c1.1,0,1.9-0.6,1.9-1.6v-1
				c0-1-0.7-1.6-1.9-1.6h-4.1L297.4,449L297.4,449z M297.4,456.2h4.1c1.5,0,2.3-0.7,2.3-1.8v-0.8c0-1.2-0.7-1.9-2-1.9h-4.3
				L297.4,456.2L297.4,456.2z"/>
			<path class="st5" d="M314,458.9h-3.7v-16.8h3.7V458.9z"/>
			<path class="st5" d="M328.8,442.2v3.2h-4.6v13.6h-3.7v-13.6h-4.6v-3.2H328.8z"/>
		</g>
	</g>
</g>
</svg>
