<?xml version="1.0" encoding="utf-8"?>
<!-- Generator: Adobe Illustrator 27.1.1, SVG Export Plug-In . SVG Version: 6.00 Build 0)  -->
<svg version="1.1" id="Layer_1" xmlns="http://www.w3.org/2000/svg" xmlns:xlink="http://www.w3.org/1999/xlink" x="0px" y="0px"
	 width="417px" height="529px" viewBox="0 0 417 529" style="enable-background:new 0 0 417 529;" xml:space="preserve">
<style type="text/css">
	.st0{fill:url(#SVGID_1_);}
	.st1{fill:url(#SVGID_00000160187301682244954040000011758395846938690488_);}
	.st2{fill:url(#SVGID_00000091015163344364380720000000676992602172181395_);}
	.st3{fill-rule:evenodd;clip-rule:evenodd;fill:#979797;}
	.st4{fill:#F8DF38;}
	.st5{fill:url(#SVGID_00000150797905731847819460000014268372719743035797_);}
	.st6{fill:#D5D4D3;}
	.st7{fill:url(#SVGID_00000175321962411250947490000000206165166353919154_);}
	.st8{fill:url(#SVGID_00000050642211641025674720000014288694066885165492_);}
	.st9{fill:url(#SVGID_00000176019668322101062940000016807545102384936091_);}
	.st10{fill-rule:evenodd;clip-rule:evenodd;fill:#34B44C;}
	.st11{fill-rule:evenodd;clip-rule:evenodd;fill:#828485;}
	.st12{fill:#FCDC00;}
	.st13{fill:#E1E0E1;}
	.st14{fill:#828485;}
	.st15{fill:#FADB00;}
	.st16{fill-rule:evenodd;clip-rule:evenodd;fill:#121921;}
	.st17{fill:#121921;}
	.st18{fill-rule:evenodd;clip-rule:evenodd;}
	.st19{fill-rule:evenodd;clip-rule:evenodd;fill:url(#SVGID_00000160881262873380232130000013656042082762106763_);}
	.st20{fill:#B3B2B3;}
	.st21{fill-rule:evenodd;clip-rule:evenodd;fill:url(#SVGID_00000169524829831846412840000005974070889879537051_);}
	.st22{fill-rule:evenodd;clip-rule:evenodd;fill:#B3B1B3;}
	.st23{fill-rule:evenodd;clip-rule:evenodd;fill:url(#SVGID_00000115502843377066674540000000871198170926339466_);}
	.st24{fill:#B3B1B3;}
	.st25{fill-rule:evenodd;clip-rule:evenodd;fill:url(#SVGID_00000032637591197972520610000006406005268571671207_);}
	.st26{fill-rule:evenodd;clip-rule:evenodd;fill:url(#SVGID_00000005969619489454935520000007278043332938234278_);}
	.st27{fill-rule:evenodd;clip-rule:evenodd;fill:url(#SVGID_00000183952817905380881140000001431399344019170232_);}
	.st28{fill-rule:evenodd;clip-rule:evenodd;fill:url(#SVGID_00000014593766056567214340000016676119723484430252_);}
	.st29{fill-rule:evenodd;clip-rule:evenodd;fill:url(#SVGID_00000137126013391516321050000008713396781090986169_);}
	.st30{fill-rule:evenodd;clip-rule:evenodd;fill:url(#SVGID_00000011029697143906292630000008937065052648530623_);}
	.st31{fill-rule:evenodd;clip-rule:evenodd;fill:url(#SVGID_00000181796633150182455040000012030202359292682118_);}
	.st32{fill-rule:evenodd;clip-rule:evenodd;fill:url(#SVGID_00000026121163633388967210000013180489127317859512_);}
	.st33{fill-rule:evenodd;clip-rule:evenodd;fill:url(#SVGID_00000158021473301997983180000006970693071905761689_);}
	.st34{fill-rule:evenodd;clip-rule:evenodd;fill:url(#SVGID_00000173162743121560787090000009265248553628153486_);}
	.st35{fill-rule:evenodd;clip-rule:evenodd;fill:url(#SVGID_00000021810761009338205760000008900303029289668005_);}
	.st36{fill-rule:evenodd;clip-rule:evenodd;fill:url(#SVGID_00000078732965031761181650000010910406831554488228_);}
	.st37{fill-rule:evenodd;clip-rule:evenodd;fill:url(#SVGID_00000044169026795350636920000007565035360511766954_);}
	.st38{fill-rule:evenodd;clip-rule:evenodd;fill:url(#SVGID_00000152264128906480128350000000491831876759360899_);}
	.st39{fill-rule:evenodd;clip-rule:evenodd;fill:url(#SVGID_00000027594995111789967390000005995530891320566938_);}
	.st40{fill-rule:evenodd;clip-rule:evenodd;fill:url(#SVGID_00000044866828842739422920000003281457441096272803_);}
	.st41{fill-rule:evenodd;clip-rule:evenodd;fill:url(#SVGID_00000068675111083518468010000018275189728456164799_);}
	.st42{fill-rule:evenodd;clip-rule:evenodd;fill:url(#SVGID_00000127748420385265458250000008631081033499739528_);}
	.st43{fill:#0F1824;}
	.st44{fill-rule:evenodd;clip-rule:evenodd;fill:#8FC742;}
	.st45{fill:#FFFFFF;}
	.st46{fill:none;}
</style>
<linearGradient id="SVGID_1_" gradientUnits="userSpaceOnUse" x1="104.3359" y1="133.7885" x2="223.1208" y2="252.5733">
	<stop  offset="0.1" style="stop-color:#0C1623"/>
	<stop  offset="0.72" style="stop-color:#2FB34E"/>
</linearGradient>
<path style="fill-rule:evenodd;clip-rule:evenodd;fill:url(#SVGID_1_);" d="M331.6,144.1l-212,212L98,343.9
	c-3.9-2.2-6.3-6.4-6.3-10.9V151.6c0-6.9,5.6-12.5,12.4-12.5h217.5C325.7,139.1,329.3,141.1,331.6,144.1z"/>
<path class="st24" d="M321.6,117.3H104.1c-0.4,0-0.9,0-1.3,0c-18.3,0.7-32.9,15.8-32.9,34.3V333c0,12.4,6.6,23.8,17.4,29.9
	l108.8,61.7c10.4,5.9,23.2,5.9,33.6,0l108.8-61.7c10.7-6.1,17.4-17.5,17.4-29.9V151.6C355.8,132.7,340.5,117.3,321.6,117.3z
	 M334.1,333c0,0.3,0,0.6,0,0.9c-0.3,4.1-2.7,7.9-6.3,9.9l-22.9,13L219,405.6c-3.8,2.2-8.4,2.2-12.2,0l-61.4-34.8l-5.8-3.3L98,343.9
	c-3.9-2.2-6.3-6.4-6.3-10.9V151.6c0-6.9,5.6-12.5,12.4-12.5h217.5c6.9,0,12.4,5.6,12.4,12.5V333z"/>
<g>
	<path d="M101.9,237.8c13.7-10.2,13.7-14.2,19.1-32.5l23.5,27.4l23.5,27.4c6.2,19,40.4,59.7-8.4,56.6c-27-1.7-27.8,8.5-43.3,9.9
		c-15.5,1.4-23.7-9.9-28.3-10.7c-3.6-0.7-8.7-5.7-10.9-8.1c0,0-7-4.1-12.7-12.9c-5.7-8.9-4.4-13.6,2.2-22.3
		C73.2,263.8,88.2,248,101.9,237.8z"/>
	<path d="M237,73.9c-6.7,13.8-11.4,40-36.1,49.9l86.9,73.9c8.9-16.2,7.5-38.8,5.7-48c2.2-3.6,6.1-13.6,3.9-24.7
		c-2.7-13.9,0.2-17.5,0.4-36.4c0.2-18.9-18.9-54.9-30.5-55.8C255.7,31.8,243.7,60.1,237,73.9z"/>
	<path d="M169.4,110.7c2.2,2.8,2.1,8.3,18.2,12l-59.3,37.3c-2.9-4.9-8.6-17.4-8.5-28.4c0.2-13.8,3.9-19.3,0.4-32.4
		c-3.5-13.2-6-48.4,0.6-49.7c6.6-1.3,24,25.8,30.4,38.3C157.7,100.2,167.2,107.9,169.4,110.7z"/>
	<path d="M334,288.2V334c-0.3,4.1-2.7,7.9-6.3,9.9l-22.9,13L219,405.6c-3.8,2.2-8.4,2.2-12.2,0l-61.4-34.8l-5.8-3.3
		c8.2-7.6,15.6-12,17.4-19.4c1.5-6.5,4.8-18.2,6.9-31.1c2.6-15.5,3.5-32.9-2-45.6c-8-18.5-33-42.9-44.7-53.1
		c-0.1-0.1-0.2-0.2-0.3-0.2c0.2-15.2-7.6-29.7,0.5-41.6c4.8-7,5.2-14.9,8-22.5c1.3-3.7,3.3-7.2,6.5-10.6c1.4-1.5,3.1-2.9,5-4.2
		c0,0,0.1-0.1,0.1-0.1c11.3-7.7,25-13.9,40.2-17.3c1.4-0.3,2.8-0.6,4.2-0.9c5.1-1,10.4-1.6,15.8-1.9c3.9-0.2,8.1-0.2,12.5,0h0
		c5.9,0.3,12.2,1.2,18.5,2.8c12,2.9,24.2,8.3,34.7,17.4c1.5,1.3,3,2.7,4.5,4.2c2.8,2.8,5.3,5.9,7.8,9.3c8,11.3,13.8,19.8,18.5,27
		c7.3,11.3,11.9,19.4,17.6,30.2C317.9,222.4,327.1,261.3,334,288.2z"/>
	<g>
		<path class="st15" d="M180.8,221.8c-7.1-1.3-6.8-13.3-5.7-19.1l28.8-4.5C206.7,205.8,189.7,223.4,180.8,221.8z"/>
		<path class="st15" d="M129.6,201.7l-8.8-6.1c-4.5,15.1,3.2,20.4,7.7,21.1L129.6,201.7z"/>
	</g>
</g>
<g>
	<path class="st13" d="M353.3,473.9H72.7c-1.5,0-2.8-1.3-2.8-2.8V418c0-1.5,1.3-2.8,2.8-2.8h280.7c1.5,0,2.8,1.3,2.8,2.8v53.1
		C356.1,472.7,354.9,473.9,353.3,473.9z"/>
</g>
<g>
	<path d="M144.1,455.9v-16.8h7.2c5,0,7.6,2.8,7.6,8.4s-2.5,8.4-7.6,8.4H144.1z M147.8,452.7h3.4c2.8,0,3.8-1.1,3.8-3.7v-2.9
		c0-2.8-1.2-3.7-3.8-3.7h-3.4V452.7z"/>
	<path d="M161.4,455.9v-16.8h11.9v3.2h-8.1v3.4h7v3h-7v4h8.1v3.2H161.4z"/>
	<path d="M176.9,453.8c-1.4-1.5-2.1-3.6-2.1-6.3c0-2.7,0.7-4.8,2.2-6.3s3.4-2.3,6-2.3c2.2,0,3.9,0.6,5.3,1.7
		c1.4,1.1,2.2,2.6,2.3,4.5h-3.9c-0.3-1.8-1.7-2.9-3.9-2.9c-2.5,0-4.1,1.5-4.1,4v2.8c0,2.3,1.6,3.9,4,3.9c2,0,3.5-1.1,3.9-3h3.9
		c-0.2,1.9-1,3.4-2.5,4.5c-1.4,1.1-3.2,1.7-5.4,1.7C180.3,456.1,178.3,455.4,176.9,453.8z"/>
	<path d="M192.3,447.6c0-2.6,0.7-4.7,2.2-6.3c1.5-1.6,3.5-2.3,6-2.3c2.5,0,4.5,0.8,5.9,2.3c1.5,1.5,2.2,3.6,2.2,6.3
		c0,2.6-0.7,4.7-2.2,6.3c-1.4,1.5-3.4,2.3-6,2.3c-2.5,0-4.5-0.8-6-2.3C193.1,452.3,192.3,450.2,192.3,447.6z M196.3,448.7
		c0,2.6,1.7,4.2,4.2,4.2c2.7,0,4.3-1.6,4.3-4.2v-2.4c0-2.6-1.7-4.2-4.3-4.2c-2.7,0-4.2,1.6-4.2,4.2V448.7z"/>
	<path d="M208.2,439.2h4.4l1.8,3.5l1.8,3.6h0.2l3.6-7h4.4l-6.3,10.3v6.4h-3.7v-6.4L208.2,439.2z"/>
	<path d="M231.2,455.9v-16.8h7.2c5,0,7.6,2.8,7.6,8.4s-2.5,8.4-7.6,8.4H231.2z M234.9,452.7h3.4c2.8,0,3.8-1.1,3.8-3.7v-2.9
		c0-2.8-1.2-3.7-3.8-3.7h-3.4V452.7z"/>
	<path d="M247.9,447.6c0-2.6,0.7-4.7,2.2-6.3c1.5-1.6,3.5-2.3,6-2.3c2.5,0,4.5,0.8,5.9,2.3c1.5,1.5,2.2,3.6,2.2,6.3
		c0,2.6-0.7,4.7-2.2,6.3c-1.4,1.5-3.4,2.3-6,2.3c-2.5,0-4.5-0.8-6-2.3C248.7,452.3,247.9,450.2,247.9,447.6z M251.9,448.7
		c0,2.6,1.7,4.2,4.2,4.2c2.7,0,4.3-1.6,4.3-4.2v-2.4c0-2.6-1.7-4.2-4.3-4.2c-2.7,0-4.2,1.6-4.2,4.2V448.7z"/>
	<path d="M268.5,441.2c1.5-1.5,3.4-2.3,5.9-2.3c2,0,3.7,0.5,5.1,1.5c1.4,1,2.2,2.3,2.4,3.9H278c-0.4-1.4-1.7-2.2-3.6-2.2
		c-2.6,0-4.2,1.6-4.2,4.1v2.6c0,2.5,1.6,4.1,4,4.1c2.2,0,3.8-1.4,4-3.4h-4.7v-2.9h8.7v9.2h-3l-0.2-2.2h-0.2c-1,1.6-2.9,2.5-5.3,2.5
		c-2.3,0-4.1-0.7-5.4-2.2c-1.3-1.5-1.9-3.5-1.9-6.2C266.3,444.9,267,442.7,268.5,441.2z"/>
</g>
</svg>
