<?xml version="1.0" encoding="utf-8"?>
<!-- Generator: Adobe Illustrator 27.1.1, SVG Export Plug-In . SVG Version: 6.00 Build 0)  -->
<svg version="1.1" id="Layer_1" xmlns="http://www.w3.org/2000/svg" xmlns:xlink="http://www.w3.org/1999/xlink" x="0px" y="0px"
	 width="417px" height="529px" viewBox="0 0 417 529" style="enable-background:new 0 0 417 529;" xml:space="preserve">
<style type="text/css">
	.st0{fill:url(#SVGID_1_);}
	.st1{fill:url(#SVGID_00000012431702058463937150000004518222876590380932_);}
	.st2{fill:url(#SVGID_00000034799046175891316580000017283571474171294851_);}
	.st3{fill-rule:evenodd;clip-rule:evenodd;fill:#979797;}
	.st4{fill:#F8DF38;}
	.st5{fill:url(#SVGID_00000131344303639203140980000004084089454153109385_);}
	.st6{fill:#D5D4D3;}
	.st7{fill:url(#SVGID_00000150795817629646348280000004978533864415994041_);}
	.st8{fill:url(#SVGID_00000136377638154544583980000009389059966989636030_);}
	.st9{fill:url(#SVGID_00000058561916408871351810000016633499168256753050_);}
	.st10{fill-rule:evenodd;clip-rule:evenodd;fill:#34B44C;}
	.st11{fill-rule:evenodd;clip-rule:evenodd;fill:#828485;}
	.st12{fill:#FCDC00;}
	.st13{fill:#E1E0E1;}
	.st14{fill:#828485;}
	.st15{fill:#FADB00;}
	.st16{fill-rule:evenodd;clip-rule:evenodd;fill:#121921;}
	.st17{fill:#121921;}
	.st18{fill-rule:evenodd;clip-rule:evenodd;}
	.st19{fill-rule:evenodd;clip-rule:evenodd;fill:url(#SVGID_00000065060117748086808300000001775134298542826128_);}
	.st20{fill:#B3B2B3;}
	.st21{fill-rule:evenodd;clip-rule:evenodd;fill:url(#SVGID_00000083068128445901080130000013023111486273305519_);}
	.st22{fill-rule:evenodd;clip-rule:evenodd;fill:#B3B1B3;}
	.st23{fill-rule:evenodd;clip-rule:evenodd;fill:url(#SVGID_00000176743128161432555970000000726873886654225842_);}
	.st24{fill:#B3B1B3;}
	.st25{fill-rule:evenodd;clip-rule:evenodd;fill:url(#SVGID_00000064340070533339626720000017782988088403262909_);}
	.st26{fill-rule:evenodd;clip-rule:evenodd;fill:url(#SVGID_00000039119954653607502210000001591832163885052546_);}
	.st27{fill-rule:evenodd;clip-rule:evenodd;fill:url(#SVGID_00000110447376619069033200000009906850234677652666_);}
	.st28{fill-rule:evenodd;clip-rule:evenodd;fill:url(#SVGID_00000162331867455934943260000013265572428588329406_);}
	.st29{fill-rule:evenodd;clip-rule:evenodd;fill:url(#SVGID_00000076586362103829181590000005657489603061735357_);}
	.st30{fill-rule:evenodd;clip-rule:evenodd;fill:url(#SVGID_00000091017115735361042880000015275703373195990200_);}
	.st31{fill-rule:evenodd;clip-rule:evenodd;fill:url(#SVGID_00000038413728140136256830000013758692317306991531_);}
	.st32{fill-rule:evenodd;clip-rule:evenodd;fill:url(#SVGID_00000050620834541183991390000012247723868076641436_);}
	.st33{fill-rule:evenodd;clip-rule:evenodd;fill:url(#SVGID_00000071549030567284821940000014341547132474280586_);}
	.st34{fill-rule:evenodd;clip-rule:evenodd;fill:url(#SVGID_00000178200831434583054390000010754881879798079366_);}
	.st35{fill-rule:evenodd;clip-rule:evenodd;fill:url(#SVGID_00000011735454260312638880000014267854015164106921_);}
	.st36{fill-rule:evenodd;clip-rule:evenodd;fill:url(#SVGID_00000162333291394347577630000015207335281367208353_);}
	.st37{fill-rule:evenodd;clip-rule:evenodd;fill:url(#SVGID_00000083785633867517771690000009765475746752650129_);}
	.st38{fill-rule:evenodd;clip-rule:evenodd;fill:url(#SVGID_00000083797355824007320350000003664264658764237500_);}
	.st39{fill-rule:evenodd;clip-rule:evenodd;fill:url(#SVGID_00000118397350636071398550000005691325633566586516_);}
	.st40{fill-rule:evenodd;clip-rule:evenodd;fill:url(#SVGID_00000111192509916021375370000012392643581783550852_);}
	.st41{fill-rule:evenodd;clip-rule:evenodd;fill:url(#SVGID_00000024695244905008440770000005873778374381521826_);}
	.st42{fill-rule:evenodd;clip-rule:evenodd;fill:url(#SVGID_00000100366763216623913210000001721294959957447081_);}
	.st43{fill:#0F1824;}
	.st44{fill-rule:evenodd;clip-rule:evenodd;fill:#8FC742;}
	.st45{fill:#FFFFFF;}
	.st46{fill:none;}
</style>
<linearGradient id="SVGID_1_" gradientUnits="userSpaceOnUse" x1="140.2363" y1="133.7885" x2="259.0211" y2="252.5733">
	<stop  offset="0.1" style="stop-color:#0C1623"/>
	<stop  offset="0.72" style="stop-color:#2FB34E"/>
</linearGradient>
<path style="fill-rule:evenodd;clip-rule:evenodd;fill:url(#SVGID_1_);" d="M367.5,144.1l-212,212l-21.6-12.2
	c-3.9-2.2-6.3-6.4-6.3-10.9V151.6c0-6.9,5.6-12.5,12.4-12.5h217.5C361.6,139.1,365.2,141.1,367.5,144.1z"/>
<path class="st20" d="M357.5,117.3H140c-0.4,0-0.9,0-1.3,0c-18.3,0.7-32.9,15.8-32.9,34.3V333c0,12.4,6.6,23.8,17.4,29.9l10.9,6.2
	l44.7,25.4l53.1,30.1c10.4,5.9,23.2,5.9,33.6,0l108.8-61.7c10.7-6.1,17.4-17.5,17.4-29.9V151.6C391.7,132.7,376.4,117.3,357.5,117.3
	z M370,333c0,0.3,0,0.6,0,0.9c-0.3,4.1-2.7,7.9-6.3,9.9l-7.8,4.4l-15.1,8.6l-79.9,45.3l-6,3.4c-3.8,2.2-8.4,2.2-12.2,0l-50-28.3
	l-11.5-6.5l-5.8-3.3l-41.5-23.5c-0.8-0.4-1.5-0.9-2.1-1.5c-2.6-2.3-4.2-5.7-4.2-9.4V151.6c0-6.9,5.6-12.5,12.4-12.5h217.5
	c0.6,0,1.2,0,1.8,0.1c4.2,0.6,7.7,3.3,9.4,7c0.8,1.6,1.2,3.4,1.2,5.4V333z"/>
<g>
	<path class="st13" d="M389.2,473.9H108.6c-1.5,0-2.8-1.3-2.8-2.8V418c0-1.5,1.3-2.8,2.8-2.8h280.7c1.5,0,2.8,1.3,2.8,2.8v53.1
		C392,472.7,390.8,473.9,389.2,473.9z"/>
</g>
<g>
	<path d="M166.1,455.9v-16.8h3.7v13.5h6.8v3.3H166.1z"/>
	<path d="M177.6,447.6c0-2.6,0.7-4.7,2.2-6.3c1.5-1.6,3.5-2.3,6-2.3c2.5,0,4.5,0.8,5.9,2.3c1.5,1.5,2.2,3.6,2.2,6.3
		c0,2.6-0.7,4.7-2.2,6.3c-1.4,1.5-3.4,2.3-6,2.3c-2.5,0-4.5-0.8-6-2.3C178.4,452.3,177.6,450.2,177.6,447.6z M181.6,448.7
		c0,2.6,1.7,4.2,4.2,4.2c2.7,0,4.3-1.6,4.3-4.2v-2.4c0-2.6-1.7-4.2-4.3-4.2c-2.7,0-4.2,1.6-4.2,4.2V448.7z"/>
	<path d="M196,447.6c0-2.6,0.7-4.7,2.2-6.3c1.5-1.6,3.5-2.3,6-2.3c2.5,0,4.5,0.8,5.9,2.3c1.5,1.5,2.2,3.6,2.2,6.3
		c0,2.6-0.7,4.7-2.2,6.3c-1.4,1.5-3.4,2.3-6,2.3c-2.5,0-4.5-0.8-6-2.3C196.7,452.3,196,450.2,196,447.6z M199.9,448.7
		c0,2.6,1.7,4.2,4.2,4.2c2.7,0,4.3-1.6,4.3-4.2v-2.4c0-2.6-1.7-4.2-4.3-4.2c-2.7,0-4.2,1.6-4.2,4.2V448.7z"/>
	<path d="M214.9,455.9v-16.8h7.9c3.7,0,5.7,2.1,5.7,5.7c0,3.5-2.1,5.6-5.7,5.6h-4.2v5.4H214.9z M218.6,447.4h3.7
		c1.4,0,2.2-0.8,2.2-1.9v-1.2c0-1.2-0.8-1.8-2.2-1.8h-3.7V447.4z"/>
	<path d="M228.1,439.2h4.4l1.8,3.5l1.8,3.6h0.2l3.6-7h4.4l-6.3,10.3v6.4h-3.7v-6.4L228.1,439.2z"/>
	<path d="M251,455.9v-16.8h3.7v13.5h6.8v3.3H251z"/>
	<path d="M267.9,455.9h-3.7v-16.8h3.7V455.9z"/>
	<path d="M282.9,439.2v3l-7.9,10.6h7.8v3.2h-12.4v-3l7.9-10.5h-7.9v-3.2H282.9z"/>
	<path d="M295.8,455.9l-1-2.9h-6.5l-1,2.9h-3.8l5.9-16.8h4.3l6.1,16.8H295.8z M289.3,450.1h4.6l-0.6-1.9l-1.5-5.2h-0.1l-1.6,5.2
		L289.3,450.1z"/>
	<path d="M301.2,455.9v-16.8h8.6c3.3,0,5.1,1.9,5.1,4.9c0,2-1,3.5-2.6,4v0.2h0.6c1.3,0,2,0.7,2,2.2v5.5h-3.8V450h-6.2v5.9H301.2z
		 M304.9,447h3.9c1.4,0,2.2-0.7,2.2-1.8v-1.1c0-1.2-0.7-1.8-2.2-1.8h-3.9V447z"/>
	<path d="M318,455.9v-16.8h7.2c5,0,7.6,2.8,7.6,8.4s-2.5,8.4-7.6,8.4H318z M321.8,452.7h3.4c2.8,0,3.8-1.1,3.8-3.7v-2.9
		c0-2.8-1.2-3.7-3.8-3.7h-3.4V452.7z"/>
</g>
<path d="M384.8,157.8c0.1,2-1,4.1-2.4,4.8c-0.5,5.2-3.1,9.9-7.5,13.4c-0.3,0.3-0.7,0.5-1,0.8c-1.3,1-2.6,1.8-4,2.7
	c-0.4,0.2-0.8,0.5-1.2,0.7c-1.2,1.1-2.4,2.2-3.5,3.2c-3,2.8-5.7,5.2-9,7.8c-5.1,3.3-4.9,16.2-1.8,26.3c4.8,15.7,7.4,27,7.9,34.4
	c0.4,5.1-0.8,10.5-3,14.8c-2.5,4.9-6.3,8.1-10.8,9.3c-4.9,1.4-10.7,2.7-16.1,2.6c-1,0-2.2-0.1-3.4-0.1c-5.5-0.2-13.1-0.4-14.6,1.2
	c-0.2,0.2-0.2,0.4-0.2,0.7c0.2,2.2,2.7,7.2,7.4,13.1c14.1,17.4,24.1,33.5,34.3,55l-15.1,8.6l-79.9,45.3c-5.7-7.4-9.1-20.2-13.1-34.9
	c-0.9-3.3-1.8-6.7-2.8-10.1c-1.1-3.9-4.1-7.4-6.9-10.4c-0.1-0.1-0.3-0.2-0.7-0.1c-0.3,0-1.5,0.3-2.3,2.1
	c-5.3,11.8-21.8,20.6-35.6,26c-2.4,0.9-4.7,1.8-6.8,2.5c-7,2.4-12.3,3.8-13.4,4.1c-0.1,2-0.2,4.3-0.2,6.6v0
	c-0.1,2.4-0.1,4.7-0.2,6.6c0,0.9-0.1,1.7-0.2,2.4c-1.1,8.3-2.6,13.7-6.3,21.9c0.2,0.4,0.3,0.8,0.4,1.2c0.4,2.1-0.6,4-2.1,4.3
	c-0.1,0-0.2,0-0.4,0c-1.4,0-2.8-1.4-3.1-3.3c-0.2-1.2,0-2.4,0.6-3.3c0.1-7.5-0.4-22-2.5-24.3c-2.3,0.5-17.1,9.9-24.3,14.9
	c0,1.4-0.7,3.6-2.3,5.1c-1.9,1.6-5.4,2.3-7,0.8c-0.8-0.8-1.1-2-0.8-3.5c0.5-2.2,2.2-4.4,4.1-5.2c0.4-0.2,1.6-0.5,2.1-0.7
	c4-7.6,7.7-14.5,12.8-21.6c-5.6-1.2-13.4-0.8-20.8-0.5c-4.7,0.2-9.1,0.4-12.9,0.2l-0.2,0.5h-0.1c-1.2,0.9-2.7,1.6-4.2,1.9
	c-1.9,0.3-3.8,0.1-5.3-0.6c-1.5-0.7-2.5-1.9-2.8-3.3c-0.5-2.8,2.3-5.7,6.3-6.4c2-0.4,3.9-0.1,5.4,0.6l0.1,0l0,0.1
	c5.2-3,13.2-5.4,18.8-6.8c2.3-0.6,4.2-1,5.3-1.2c0.6-0.1,1.2-0.2,1.9-0.3c0.5-0.1,1-0.2,1.5-0.2c1.1-0.2,2.2-0.5,3.1-1.1
	c1.3-0.9,1.9-2.1,1.8-3.6c-0.2-3.5-3.9-7.7-7.4-9.8c-3.1-1.8-6.3-3.7-10.8-4.7c-1,0.3-2,0.3-3.1,0.2c-2.9-0.5-5-2.8-4.6-5
	c0.4-2.2,3.1-3.6,6-3c1.5,0.3,2.9,1.1,3.8,2.1c0.1,0,0.1,0,0.2,0c5.1,0.2,10.1,1,14.9,2.3c5.4,1.5,10.6,3.8,15.5,6.8l1.1-5.2
	c-0.8-0.7-1.4-1.7-1.6-2.9c-0.4-2.3,0.7-4.4,2.4-4.7c0.8-0.1,1.7,0.2,2.4,0.8c0.7,0.7,1.2,1.7,1.4,2.8c0.2,1,0.1,2-0.3,2.8
	c2.6,3.3,5.5,6.2,8.7,8.6c1.2,0.6,3.3,0.2,5.9-1.3c11.4-6.4,28.5-28.7,29.8-52.2l-1.6-19.2h0.2l0.1-0.1c-0.8-2.4-1.7-5-3-6.5
	c-2.7-2.8-12-12-20.1-12.3c-6.9-0.3-13,3.8-18.8,7.7c-1,0.6-2,1.3-2.9,1.9c-9.5,6.1-19.4,9.9-29.2,11c-0.4,0-0.7,0.1-1,0.1
	c-2.6,0.3-5.3,0.4-8,0.3c-4.5,0-9.1-0.5-13.5-1c-1.7-0.2-3.3-0.4-4.9-0.6l-3.3-0.4l-16.8-2c-12.3-1.5-25-3.1-37.3-6.1
	c-5.2-1.3-11.1-3-16.2-6.4c-5.5-3.6-9.1-8.5-10.3-13.8c-0.5-2-0.5-3.8,0-5.3c0.6-2,2.1-3.6,3.7-5.2c10.7-10.9,23.3-21.1,39.8-31.9
	c5.8-10.7,17.5-17.8,29.8-18.2c2.2-1.3,4.3-2.5,6.5-3.8c0.3-0.2,0.5-0.3,0.8-0.5c2.7-1.5,5.4-3.1,8.2-4.6c4.3-2.3,8.8-4.5,13.5-6.2
	c2.6-0.9,5.2-1.7,8-2.3c2.1-0.5,4.2-0.8,6.3-0.9c14.1-1,27.5,4.7,40.4,10.2c11.1,4.7,22.5,9.6,34.5,10.3v-0.1
	c7.8,0,18.4,3.6,29.8,10c10.2,5.8,19.6,13,25,19.3c1.4,1.7,3,3.2,4.5,4.7c0.8,0.8,1.6,1.6,2.4,2.4l7.1,4c8.6,5.2,19.5,5.3,28.4,5.4
	c1.9,0,8.3-0.1,10.3-2.1c1.1-1.1,2-3,2.5-5.7c1.6-8.2,2.2-22.6,0.3-31.5c-1.2-6-6.4-8.4-11.8-11c-0.8-0.4-1.6-0.8-2.4-1.2
	c-0.8-0.5-2.7-0.8-3.8-0.8c-0.9,0.3-1.8,0.5-2.9,0.5c-0.4,0-0.7,0-1.1-0.1c-2-0.2-4-1.3-5.1-2.6c-0.5-0.7-0.8-1.3-0.7-1.9
	c0-0.7,0.5-1.4,1.1-2c1.3-1.1,3.3-1.8,5.2-1.6c1.6,0.1,3,0.8,4.1,1.9c3.6,0.9,6.1-0.7,7.3-1.8c2.1-1.8,3.2-4.6,2.8-6.8
	c-0.4-2.1-1.2-3.6-2.4-5.7c-2.8-5-5.4-9-9.6-14.9c-1.7-0.2-3-1.4-3.7-2.1l-0.2-0.2c-1.4-1.3-2.3-3.1-2.2-4.6c0-0.8,0.3-1.4,0.9-1.8
	c0.8-0.5,2.2-0.7,3.7-0.3c1.7,0.4,3.1,1.1,3.8,2.2c0.8,1,0.9,1.7,1.3,3.1c8,2.5,17,12.7,18.9,14.9c1.9-6.6,2.3-16.2,0.4-24.4
	c0-0.2-0.1-0.4-0.1-0.6c-0.6-2.5-1.5-4.9-2.6-6.9c-1.2-0.8-2.4-2.6-2.9-4c-0.5-1.5-1-5.2,0.2-7.2c0.5-0.8,1.2-1.3,2.1-1.4
	c2.4-0.3,5.8,2.1,6.2,5.3c0.3,2.1,0.1,4.2-0.2,5.2c2,2.3,4.2,5.4,6.2,9c0.1,0.2,0.2,0.4,0.3,0.6c4.5,7.9,8.4,17.6,8.8,24.3
	c10-6.8,10.8-15.8,10.5-24.3c0-0.1,0-0.3,0-0.4c0-1-0.1-1.9-0.1-2.8l-0.1-1c-2.2-1.1-2.5-2.8-2.7-3.7l0-0.1c-0.5-2.3-0.1-6.8,1-7.4
	c1.1-0.7,2.2-1,3.2-0.8c2,0.4,3.3,2.5,4,3.4c0.1,0.2,0.2,0.2,0.2,0.3c1.9,3.9,0.7,6.1,0.3,6.8c0.8,1.2,1.8,3.6,2.6,6.8
	c0.4,1.6,0.8,3.5,1.1,5.5c1,6.9,0.7,15.3-2.9,22.6c1.1-0.1,2.6-0.4,4.1-1c1.7-0.7,3.5-1.7,5-2.9c1.5-1.3,2.8-2.9,3.4-4.7
	c0-0.1,0-0.1-0.1-0.2c-0.1-0.3-0.4-0.8-0.3-1.7c0.2-2.3,1.5-6.5,3.6-6.5c0.9,0,1.8,0.7,2.4,2.1C384.5,155.1,384.8,156.5,384.8,157.8
	z"/>
<path class="st4" d="M113,234.4C113,234.4,112.9,234.4,113,234.4c-0.1-0.1-0.1-0.2-0.2-0.2c-1.8-2-4.5-2.2-7-2
	c-3,0.3-5.9,1.2-8.5,2.5c-5.5,2.7-9.8,7.3-13.5,12.1c-0.4,0.5,4,2.5,5.6,3c1.7,0.5,3.4,1,5.2,1.2c3.5,0.5,6.9-0.4,10.1-2.1
	c2.9-1.5,5.6-3.7,7.5-6.4C113.8,240.3,114.8,237,113,234.4z"/>
</svg>
