<?xml version="1.0" encoding="utf-8"?>
<!-- Generator: Adobe Illustrator 27.1.1, SVG Export Plug-In . SVG Version: 6.00 Build 0)  -->
<svg version="1.1" id="Layer_1" xmlns="http://www.w3.org/2000/svg" xmlns:xlink="http://www.w3.org/1999/xlink" x="0px" y="0px"
	 width="417px" height="529px" viewBox="0 0 417 529" style="enable-background:new 0 0 417 529;" xml:space="preserve">
<style type="text/css">
	.st0{fill-rule:evenodd;clip-rule:evenodd;fill:url(#SVGID_1_);}
	.st1{fill:#B3B2B3;}
	.st2{fill:#E1E0E1;}
	.st3{fill:#F8DF38;}
</style>
<linearGradient id="SVGID_1_" gradientUnits="userSpaceOnUse" x1="99.8381" y1="396.2257" x2="218.632" y2="277.4319" gradientTransform="matrix(1 0 0 -1 0 530)">
	<stop  offset="0.1" style="stop-color:#0C1623"/>
	<stop  offset="0.72" style="stop-color:#2FB34E"/>
</linearGradient>
<path class="st0" d="M327.1,144.1l-212,212l-21.6-12.2c-3.9-2.2-6.3-6.4-6.3-10.9V151.6c0-6.9,5.6-12.5,12.4-12.5h217.5
	C321.2,139.1,324.8,141.1,327.1,144.1z"/>
<path class="st1" d="M332.9,121.1c-4.7-2.5-10.1-3.9-15.7-3.9H99.6c-0.4,0-0.9,0-1.3,0C80,118,65.4,133.1,65.4,151.6V333
	c0,12.4,6.6,23.8,17.4,29.9l10.9,6.2l44.7,25.4l53.1,30.1c10.4,5.9,23.2,5.9,33.6,0l108.8-61.7c10.7-6.1,17.4-17.5,17.4-29.9V151.6
	C351.3,138.4,343.8,126.8,332.9,121.1z M329.6,333c0,0.3,0,0.6,0,0.9c-0.3,4.1-2.7,7.9-6.3,9.9l-7.8,4.4l-2.6,1.5l-12.5,7.1
	l-79.9,45.3l-6,3.4c-3.8,2.2-8.4,2.2-12.2,0l-50-28.3l-11.5-6.5l-5.8-3.3l-16.5-9.4l-25-14.2c-0.8-0.4-1.5-0.9-2.1-1.5l-0.1-0.1
	c-2.6-2.4-4.1-5.7-4.1-9.3V151.6c0-2.4,0.7-4.6,1.8-6.4c1.5-2.6,4-4.5,6.8-5.5c1.2-0.4,2.5-0.6,3.8-0.6h217.5c0.6,0,1.2,0,1.8,0.1
	c4.2,0.6,7.7,3.3,9.4,7c0.8,1.6,1.2,3.4,1.2,5.4L329.6,333L329.6,333z"/>
<g>
	<path class="st2" d="M348.8,473.9H68.2c-1.5,0-2.8-1.3-2.8-2.8V418c0-1.5,1.3-2.8,2.8-2.8h280.7c1.5,0,2.8,1.3,2.8,2.8v53.1
		C351.6,472.7,350.4,473.9,348.8,473.9z"/>
</g>
<g>
	<path d="M86.8,455.9v-16.8h4.6l4.1,9.4h0.2l4-9.4h4.6v16.8h-3.6v-7.1l0.2-4.6h-0.2l-5.2,11.4l-5.2-11.4h-0.2l0.2,4.6v7h-3.5V455.9z
		"/>
	<path d="M107.8,439.2h3.7v10.1c0,2.2,1.3,3.6,3.5,3.6s3.5-1.3,3.5-3.6v-10.1h3.7v10.3c0,2.1-0.7,3.7-2,4.9
		c-1.3,1.2-3.1,1.8-5.3,1.8c-4.8,0-7.2-2.5-7.2-6.6v-10.4H107.8z"/>
	<path d="M125.7,455.9v-16.8h7.2c5,0,7.6,2.8,7.6,8.4s-2.5,8.4-7.6,8.4H125.7z M129.4,452.7h3.4c2.8,0,3.8-1.1,3.8-3.7v-2.9
		c0-2.8-1.2-3.7-3.8-3.7h-3.4V452.7z"/>
	<path d="M143,455.9v-16.8h7.2c5,0,7.6,2.8,7.6,8.4s-2.5,8.4-7.6,8.4H143z M146.7,452.7h3.4c2.8,0,3.8-1.1,3.8-3.7v-2.9
		c0-2.8-1.2-3.7-3.8-3.7h-3.4V452.7z"/>
	<path d="M160.2,455.9v-16.8h3.7v13.5h6.8v3.3H160.2z"/>
	<path d="M177.1,455.9h-3.7v-16.8h3.7V455.9z"/>
	<path d="M180.7,455.9v-16.8h4.3l6.8,11.6h0.1l-0.2-4.8v-6.8h3.7v16.8H191l-6.7-11.5h-0.2l0.2,4.6v6.9L180.7,455.9L180.7,455.9z"/>
	<path d="M200.1,441.2c1.5-1.5,3.4-2.3,5.9-2.3c2,0,3.7,0.5,5.1,1.5c1.4,1,2.2,2.3,2.4,3.9h-3.9c-0.4-1.4-1.7-2.2-3.6-2.2
		c-2.6,0-4.2,1.6-4.2,4.1v2.6c0,2.5,1.6,4.1,4,4.1c2.2,0,3.8-1.4,4-3.4h-4.7v-2.9h8.7v9.2h-3l-0.2-2.2h-0.2c-1,1.6-2.9,2.5-5.3,2.5
		c-2.3,0-4.1-0.7-5.4-2.2c-1.3-1.5-1.9-3.5-1.9-6.2C197.9,444.9,198.6,442.7,200.1,441.2z"/>
	<path d="M222,455.9v-16.8h4.6l4.1,9.4h0.2l4-9.4h4.6v16.8H236v-7.1l0.2-4.6H236l-5.2,11.4l-5.2-11.4h-0.2l0.2,4.6v7H222V455.9z"/>
	<path d="M243.1,455.9v-16.8H255v3.2h-8.1v3.4h7v3h-7v4h8.1v3.2L243.1,455.9L243.1,455.9z"/>
	<path d="M257.9,455.9v-16.8h11.9v3.2h-8.1v3.4h7v3h-7v4h8.1v3.2L257.9,455.9L257.9,455.9z"/>
	<path d="M272.6,455.9v-16.8h8.6c3.3,0,5.1,1.9,5.1,4.9c0,2-1,3.5-2.6,4v0.2h0.6c1.3,0,2,0.7,2,2.2v5.5h-3.8V450h-6.2v5.9H272.6z
		 M276.3,447h3.9c1.4,0,2.2-0.7,2.2-1.8v-1.1c0-1.2-0.7-1.8-2.2-1.8h-3.9V447z"/>
	<path d="M299.8,455.9l-4.3-6.5l-2.3,2.7v3.8h-3.7v-16.8h3.7v7.8l6.3-7.8h4.6l-6.1,7.3l6.3,9.5H299.8z"/>
	<path d="M316.6,455.9l-1-2.9h-6.5l-1,2.9h-3.8l5.9-16.8h4.3l6.1,16.8H316.6z M310.1,450.1h4.6l-0.6-1.9l-1.5-5.2h-0.1l-1.6,5.2
		L310.1,450.1z"/>
	<path d="M331.8,439.2v3.2h-4.6v13.5h-3.7v-13.5h-4.6v-3.2H331.8z"/>
</g>
<path d="M277.9,269.5c-8.9-16.1-6.3-33.6-4.7-47.4c1.6-13.8,10.2-24.3,12.2-63.8c2.7-1.1,5.5-7,7-15l0.1-0.6
	c0.2-1.1,0.4-2.3,0.5-3.6c0.5-4.1,0.6-8.5,0.2-13c-0.1-1.1-0.2-2.9-0.4-5c-0.2-1.2-0.4-2.5-0.7-3.8c-2-7.6-7.7-17.4-25.8-21
	c0,0-7.4-10.6-22.7-19.9c-15.4-9.3-30.8-9.2-52.3-4.1c-21.7-2.4-39,7.3-43.2,9.9s-9.6,6.3-18.4,9.6c0,0-2.7,0.4-7.3,2.3
	c-4.7,1.9-3.6,10.5-6.2,15c-2.2,3.2-3.3,6-3.7,8.1c-0.3,1.6-0.4,2.9-0.3,3.8c0.1,1.4,0.4,2,0.4,2s-1.8,2-4.2,4.4
	c-2.3,2-7.1,6.9-11.7,11.2c-0.4,0.3-0.7,0.7-1.1,1c-1.9,1.8-3.8,3.4-5.4,4.7c-0.5,0.2-1,0.5-1.5,0.8c-0.8,0.5-1.6,1.1-2.3,1.8
	c-4.4,3.2-6.8,5.8-8.6,7.5c-0.3,0.2-0.6,0.5-0.9,0.8c-2.5,2.1-6.7,5.5-8,7.2c-1.5,1.9-0.2,8.7,6.9,11.3c-0.2,1.5,0.3,2.9,1.2,4.3
	c1.4,2.1,3.7,4,6,5.6c1.5,1,2.9,1.8,4.1,2.5c0.5,0.3,0.9,0.5,1.3,0.7c0.1,0,0.1,0.1,0.1,0.1c3,1.7,8.5,3.1,13.2,2.5
	c1.6,6.5,12.4,11.5,17.5,13.1c7.8,2.6,16.9,3.8,31.4,4.4c25.6,12.5,6.5,80.1,1,91c-5.1,10.1-27.9,35.6-33.3,59.6
	c0,0.2-0.1,0.3-0.1,0.5l16.5,9.4l5.8,3.3l11.5,6.5l50,28.3c3.8,2.2,8.4,2.2,12.2,0l6-3.4l79.9-45.3l12.5-7.1
	C305,318,283.1,279,277.9,269.5z M186.5,112.5L186.5,112.5L186.5,112.5c0.1,0.2,0.2,0.4,0.2,0.6c0.3,1.2,0.2,2.7-0.3,4.2
	c0,0.1-0.1,0.2-0.1,0.4c-0.1,0.3-0.2,0.5-0.3,0.8s-0.2,0.6-0.4,0.9c-0.1,0.3-0.3,0.6-0.5,0.9c-0.1,0.3-0.3,0.5-0.4,0.8
	c-0.1,0.2-0.3,0.5-0.4,0.7c-0.2,0.4-0.5,0.8-0.8,1.2c-0.1,0.2-0.2,0.3-0.3,0.5c-0.3,0.4-0.7,0.9-1,1.3c-0.2,0.2-0.3,0.4-0.5,0.6
	s-0.3,0.4-0.5,0.6s-0.3,0.4-0.5,0.6c-1.2,1.4-2.5,2.7-3.9,3.8c-0.4,0.3-0.7,0.6-1.1,0.9c-0.2,0.2-0.4,0.3-0.7,0.5
	c-0.2,0.1-0.4,0.3-0.6,0.4c-0.4,0.3-0.8,0.5-1.2,0.7c-0.2,0.1-0.4,0.2-0.6,0.3c-0.6,0.3-1.2,0.6-1.7,0.8c-0.2,0.1-0.4,0.1-0.5,0.2
	c-0.4,0.1-0.8,0.2-1.1,0.3c-0.1,0-0.2,0-0.3,0.1c-0.1,0-0.2,0-0.4,0.1c-0.1,0-0.1,0-0.2,0c-0.2,0-0.4,0-0.5,0c-0.3,0-0.5,0-0.8,0
	c-1.2-0.2-2.2-0.7-3.1-1.5c-0.2-0.2-0.4-0.4-0.6-0.6l0,0c-0.4-0.5-0.7-1-0.9-1.5l0,0c-0.1-0.3-0.2-0.6-0.4-0.9l0,0
	c-1-2.7-1.3-6.1-1.2-9c0-0.3,0-0.6,0-0.9s0-0.6,0-0.9c0-0.5,0.1-1,0.1-1.4l2.8-0.6L186.5,112.5z M117.3,117.2
	c0.9-1.9,2.2-4.2,3.5-6.9l7.5,3.2l0,0c-0.2,0.2-0.3,0.4-0.5,0.7c-0.2,0.2-0.4,0.4-0.6,0.7c-0.2,0.2-0.4,0.4-0.6,0.7
	c-0.2,0.2-0.5,0.4-0.7,0.7c-0.2,0.2-0.5,0.4-0.7,0.7c-0.2,0.2-0.3,0.3-0.5,0.4c-0.1,0.1-0.2,0.2-0.3,0.2c-0.4,0.3-0.8,0.7-1.2,1
	c-1.2,0.9-2.5,1.8-3.7,2.6c-1,0.7-1.9,1.3-2.7,1.8c-0.2-0.2-0.3-0.5-0.4-0.8s-0.1-0.6-0.1-1c0-0.5,0.1-1,0.2-1.5l0,0
	c0.1-0.5,0.4-1.1,0.6-1.8C117.1,117.6,117.2,117.5,117.3,117.2L117.3,117.2z"/>
<path class="st3" d="M128.4,113.5l-7.5-3.2c-3,5.9-5.8,10.1-4.1,12.5C119.9,120.9,125.8,117,128.4,113.5z"/>
<path class="st3" d="M167,134.6c8,1,22.4-15.5,19.5-22.2l-25.5,5.4C160.3,123.1,160.6,133.8,167,134.6z"/>
</svg>
