<?xml version="1.0" encoding="utf-8"?>
<!-- Generator: Adobe Illustrator 27.1.1, SVG Export Plug-In . SVG Version: 6.00 Build 0)  -->
<svg version="1.1" id="Layer_1" xmlns="http://www.w3.org/2000/svg" xmlns:xlink="http://www.w3.org/1999/xlink" x="0px" y="0px"
	 width="417px" height="529px" viewBox="0 0 417 529" style="enable-background:new 0 0 417 529;" xml:space="preserve">
<style type="text/css">
	.st0{fill:url(#SVGID_1_);}
	.st1{fill:url(#SVGID_00000041978404248823726070000014939078268272855966_);}
	.st2{fill:url(#SVGID_00000165195196119891640000000015110459327691288461_);}
	.st3{fill-rule:evenodd;clip-rule:evenodd;fill:#979797;}
	.st4{fill:#F8DF38;}
	.st5{fill:url(#SVGID_00000132798332782187179280000008117941508049917076_);}
	.st6{fill:#D5D4D3;}
	.st7{fill:url(#SVGID_00000016792003609577437940000003640097129841744569_);}
	.st8{fill:url(#SVGID_00000085242510102304999880000013692895462378554556_);}
	.st9{fill:url(#SVGID_00000156585036447824374460000011001237037964436660_);}
	.st10{fill-rule:evenodd;clip-rule:evenodd;fill:#34B44C;}
	.st11{fill-rule:evenodd;clip-rule:evenodd;fill:#828485;}
	.st12{fill:#FCDC00;}
	.st13{fill:#E1E0E1;}
	.st14{fill:#828485;}
	.st15{fill:#FADB00;}
	.st16{fill-rule:evenodd;clip-rule:evenodd;fill:#121921;}
	.st17{fill:#121921;}
	.st18{fill-rule:evenodd;clip-rule:evenodd;}
	.st19{fill-rule:evenodd;clip-rule:evenodd;fill:url(#SVGID_00000101806671162951856790000004599031868667436178_);}
	.st20{fill:#B3B2B3;}
	.st21{fill-rule:evenodd;clip-rule:evenodd;fill:url(#SVGID_00000070815890755948178110000011210863414053007790_);}
	.st22{fill-rule:evenodd;clip-rule:evenodd;fill:#B3B1B3;}
	.st23{fill-rule:evenodd;clip-rule:evenodd;fill:url(#SVGID_00000026157863099672037590000017322519945798443691_);}
	.st24{fill:#B3B1B3;}
	.st25{fill-rule:evenodd;clip-rule:evenodd;fill:url(#SVGID_00000177452794123266327430000012515136898743419577_);}
	.st26{fill-rule:evenodd;clip-rule:evenodd;fill:url(#SVGID_00000179617409686584633700000001192127414482000785_);}
	.st27{fill-rule:evenodd;clip-rule:evenodd;fill:url(#SVGID_00000072992786719810955760000011461693095339230603_);}
	.st28{fill-rule:evenodd;clip-rule:evenodd;fill:url(#SVGID_00000145773621811409515100000010676949260520328358_);}
	.st29{fill-rule:evenodd;clip-rule:evenodd;fill:url(#SVGID_00000001645562684563891080000006590956842771842238_);}
	.st30{fill-rule:evenodd;clip-rule:evenodd;fill:url(#SVGID_00000118361429567713724060000000338429752572028044_);}
	.st31{fill-rule:evenodd;clip-rule:evenodd;fill:url(#SVGID_00000098918997219673053020000000761031965282561724_);}
	.st32{fill-rule:evenodd;clip-rule:evenodd;fill:url(#SVGID_00000033336615413945274440000016721200860553134250_);}
	.st33{fill-rule:evenodd;clip-rule:evenodd;fill:url(#SVGID_00000099636796183189366520000016686805804117998503_);}
	.st34{fill-rule:evenodd;clip-rule:evenodd;fill:url(#SVGID_00000132055874506703602300000006058354752194328760_);}
	.st35{fill-rule:evenodd;clip-rule:evenodd;fill:url(#SVGID_00000137102144973976193830000013964909229068171451_);}
	.st36{fill-rule:evenodd;clip-rule:evenodd;fill:url(#SVGID_00000113348933249826771740000016677449377518903990_);}
	.st37{fill-rule:evenodd;clip-rule:evenodd;fill:url(#SVGID_00000022562648868505030210000013526313269207060115_);}
	.st38{fill-rule:evenodd;clip-rule:evenodd;fill:url(#SVGID_00000038386364244884231640000000113394067879869099_);}
	.st39{fill-rule:evenodd;clip-rule:evenodd;fill:url(#SVGID_00000168835983361492341790000005032396174977038527_);}
	.st40{fill-rule:evenodd;clip-rule:evenodd;fill:url(#SVGID_00000022535837163523642210000004044487012454896300_);}
	.st41{fill-rule:evenodd;clip-rule:evenodd;fill:url(#SVGID_00000041278747646662746350000011476316601791072902_);}
	.st42{fill-rule:evenodd;clip-rule:evenodd;fill:url(#SVGID_00000160882603437546759300000012324990604529984423_);}
	.st43{fill:#0F1824;}
	.st44{fill-rule:evenodd;clip-rule:evenodd;fill:#8FC742;}
	.st45{fill:#FFFFFF;}
	.st46{fill:none;}
</style>
<linearGradient id="SVGID_1_" gradientUnits="userSpaceOnUse" x1="106.6977" y1="133.7885" x2="225.4826" y2="252.5733">
	<stop  offset="0.1" style="stop-color:#0C1623"/>
	<stop  offset="0.72" style="stop-color:#2FB34E"/>
</linearGradient>
<path style="fill-rule:evenodd;clip-rule:evenodd;fill:url(#SVGID_1_);" d="M333.9,144.1l-212,212l-21.6-12.2
	c-3.9-2.2-6.3-6.4-6.3-10.9V151.6c0-6.9,5.6-12.5,12.4-12.5H324C328.1,139.1,331.7,141.1,333.9,144.1z"/>
<path class="st24" d="M339.7,121.1c-4.7-2.5-10.1-3.9-15.7-3.9H106.5c-0.4,0-0.9,0-1.3,0c-18.3,0.7-32.9,15.8-32.9,34.3V333
	c0,12.4,6.6,23.8,17.4,29.9l10.9,6.2l44.7,25.4l53.1,30.1c10.4,5.9,23.2,5.9,33.6,0l108.8-61.7c10.7-6.1,17.4-17.5,17.4-29.9V151.6
	C358.2,138.4,350.7,126.8,339.7,121.1z M336.4,333c0,0.3,0,0.6,0,0.9c0,0.1,0,0.1,0,0.2c0,0,0,0,0,0c-0.4,4-2.7,7.7-6.3,9.7
	l-7.8,4.4l-2.6,1.5l-12.5,7.1l-79.9,45.3l-6,3.4c-3.8,2.2-8.4,2.2-12.2,0l-50-28.3l-11.5-6.5l-5.8-3.3l-1.7-0.9l-14.9-8.4l-25-14.2
	c-0.8-0.4-1.5-0.9-2.1-1.5c0,0-0.1-0.1-0.1-0.1c-2.6-2.4-4.1-5.7-4.1-9.3V151.6c0-2.4,0.7-4.6,1.8-6.4c1.5-2.6,4-4.5,6.8-5.5
	c1.2-0.4,2.5-0.6,3.8-0.6H324c0.6,0,1.2,0,1.8,0.1c4.2,0.6,7.7,3.3,9.4,7c0.8,1.6,1.2,3.4,1.2,5.4V333z"/>
<path d="M336.4,223v110.6c0,0.2,0,0.4,0,0.6c0,0,0,0,0,0c-0.4,4-2.7,7.7-6.3,9.7l-7.8,4.4l-2.6,1.5l-12.5,7.1l-79.9,45.3l-6,3.4
	c-3.8,2.2-8.4,2.2-12.2,0l-50-28.3l-11.5-6.5l-5.8-3.3l-1.7-0.9c1-6.2,2.6-14.1,4.2-22.8c0.8-4.8,2.6-9.7,4.8-14.3
	c3.9-8.3,9.4-15.8,13.8-19.8c5.5-5,7.7-5.3,13.4-10.3c1.6-1.4-9.3-9.7-9.3-9.7c-6.3,1.5-21,5.9-35.4,3.8
	c-13.4-1.9-19-15.8-19.5-29.7c-5.4-4-10.6-10.8-13.5-21.4c-1.6,0.2-3.1,0.4-4.6,0.7c0,0,0,0,0,0c-7.5,1.3-14.8,3.7-21.7,7
	c0,0,0,0,0,0c-3.7,1.8-7.2,3.8-10.6,6.1c-1.3,0.9-4.3-1-2.7-2.1c4.2-2.9,8.6-5.3,13.3-7.4c0,0,0,0,0,0c6.9-3.1,14.2-5.3,21.7-6.4
	c0,0,0,0,0,0c1.3-0.2,2.7-0.4,4-0.5c-0.2-0.9-0.4-1.8-0.5-2.7c-0.1-0.8-0.2-1.6-0.2-2.4c-1-0.1-2.1-0.3-3.2-0.4h0
	c-7-0.8-14.5-1.1-21.7-0.9h0c-3.6,0.1-7.2,0.4-10.5,0.9c-0.9,0.1-3.9-2-2-3.1c3.9-0.5,8.2-0.8,12.5-0.9h0c7.2-0.2,14.8,0.3,21.7,1.2
	h0c1.1,0.1,2.2,0.3,3.4,0.4c0.4-2.7,1.5-5.2,3.1-7.6c-2.1-1.4-4.3-2.6-6.5-3.9c0,0,0,0,0,0c-6.9-3.8-14.2-6.8-21.7-8.9c0,0,0,0,0,0
	c-3.1-0.9-6.2-1.6-9.3-2.2c-1.8-0.3-2.5-3.7-0.2-3.2c3.2,0.6,6.4,1.4,9.6,2.3c0,0,0,0,0,0c7.5,2.2,14.8,5.1,21.7,8.8c0,0,0,0,0,0
	c2.8,1.5,5.5,3.1,8.2,4.8c1-1.2,2-2.5,3.2-3.7c-2.1-7.5-6.7-32.8,2.7-46c-1.1-5.2-1.3-17.2,6.8-24c1.1-2.2,2.5-5.1,4.2-8.4
	c0.1-0.2,0.2-0.3,0.3-0.5c3.1-6.1,6.9-13.1,10.8-17.4c-0.5-1.1-0.8-2.4-1.1-3.9c0-0.2-0.1-0.4-0.1-0.5c-0.8-4.6-0.9-11.2-0.9-20
	c0-15.9,3.5-37.1,12-38.4c8.5-1.2,14.8,18.4,21.5,26.2c2.7,3.2,6.8,4.8,9.1,8.8c6.3-2.5,10.8-2.8,36.6-4.2
	c25.8-1.3,37.6,3.4,42.7,5.9c11.6-6.3,39.1-37.2,58.9-32c13.6,3.6,13.4,33.9,10.5,53.6c0,0.2,0,0.3-0.1,0.5c0,0,0,0,0,0
	c-1.1,7.5-3.2,15-5.7,21.3c-0.1,0.2-0.1,0.3-0.2,0.5c-2.6,6.7-5.6,11.9-8.2,14.4c0.8,2.5,1.3,9.1-2.8,15.4c0.3,1.5,0.8,3.3,1.4,5.3
	c3.3,11,10.4,28.5,21,37.9C328.8,216.1,332.7,219.6,336.4,223z"/>
<path class="st12" d="M189.3,190.7c-8.9-1.7-8.2-16.5-6.8-23.7l36.1-5.1C222,171.3,200.4,192.9,189.3,190.7z"/>
<path class="st12" d="M125.7,165.1l-1.7,18.5c-5.5-1-15.2-7.6-9.2-26.2L125.7,165.1z"/>
<g>
	<path class="st13" d="M355.7,473.9H75c-1.5,0-2.8-1.3-2.8-2.8V418c0-1.5,1.3-2.8,2.8-2.8h280.7c1.5,0,2.8,1.3,2.8,2.8v53.1
		C358.5,472.7,357.2,473.9,355.7,473.9z"/>
</g>
<g>
	<path d="M124.5,455.9v-16.8h7.9c3.7,0,5.7,2.1,5.7,5.7c0,3.5-2.1,5.6-5.7,5.6h-4.2v5.4H124.5z M128.2,447.4h3.7
		c1.4,0,2.2-0.8,2.2-1.9v-1.2c0-1.2-0.8-1.8-2.2-1.8h-3.7V447.4z"/>
	<path d="M140.3,455.9v-16.8h8.6c3.3,0,5.1,1.9,5.1,4.9c0,2-1,3.5-2.6,4v0.2h0.6c1.3,0,2,0.7,2,2.2v5.5h-3.8V450H144v5.9H140.3z
		 M144,447h3.9c1.4,0,2.2-0.7,2.2-1.8v-1.1c0-1.2-0.7-1.8-2.2-1.8H144V447z"/>
	<path d="M155.8,447.6c0-2.6,0.7-4.7,2.2-6.3c1.5-1.6,3.5-2.3,6-2.3c2.5,0,4.5,0.8,5.9,2.3c1.5,1.5,2.2,3.6,2.2,6.3
		c0,2.6-0.7,4.7-2.2,6.3c-1.4,1.5-3.4,2.3-6,2.3c-2.5,0-4.5-0.8-6-2.3C156.6,452.3,155.8,450.2,155.8,447.6z M159.8,448.7
		c0,2.6,1.7,4.2,4.2,4.2c2.7,0,4.3-1.6,4.3-4.2v-2.4c0-2.6-1.7-4.2-4.3-4.2c-2.7,0-4.2,1.6-4.2,4.2V448.7z"/>
	<path d="M174.7,455.9v-16.8h3.7v13.5h6.8v3.3H174.7z"/>
	<path d="M191.6,455.9h-3.7v-16.8h3.7V455.9z"/>
	<path d="M195.1,455.9v-16.8H207v3.2h-8.1v4.6h7.2v3h-7.2v5.9H195.1z"/>
	<path d="M213.1,455.9h-3.7v-16.8h3.7V455.9z"/>
	<path d="M217.8,453.8c-1.4-1.5-2.1-3.6-2.1-6.3c0-2.7,0.7-4.8,2.2-6.3c1.4-1.5,3.4-2.3,6-2.3c2.2,0,3.9,0.6,5.3,1.7
		c1.4,1.1,2.2,2.6,2.3,4.5h-3.9c-0.3-1.8-1.7-2.9-3.9-2.9c-2.5,0-4.1,1.5-4.1,4v2.8c0,2.3,1.6,3.9,4,3.9c2,0,3.5-1.1,3.9-3h3.9
		c-0.2,1.9-1,3.4-2.5,4.5c-1.4,1.1-3.2,1.7-5.4,1.7C221.1,456.1,219.2,455.4,217.8,453.8z"/>
	<path d="M238.9,455.9v-16.8h7.9c3.7,0,5.7,2.1,5.7,5.7c0,3.5-2.1,5.6-5.7,5.6h-4.2v5.4H238.9z M242.6,447.4h3.7
		c1.4,0,2.2-0.8,2.2-1.9v-1.2c0-1.2-0.8-1.8-2.2-1.8h-3.7V447.4z"/>
	<path d="M254.6,439.2h3.7v10.1c0,2.2,1.3,3.6,3.5,3.6c2.2,0,3.5-1.3,3.5-3.6v-10.1h3.7v10.3c0,2.1-0.7,3.7-2,4.9s-3.1,1.8-5.3,1.8
		c-4.8,0-7.2-2.5-7.2-6.6V439.2z"/>
	<path d="M272.4,455.9v-16.8h4.6l4.1,9.4h0.2l4-9.4h4.6v16.8h-3.6v-7.1l0.2-4.6h-0.2l-5.2,11.4l-5.2-11.4h-0.2l0.2,4.6v7H272.4z"/>
	<path d="M304,455.9l-1-2.9h-6.5l-1,2.9h-3.8l5.9-16.8h4.3l6.1,16.8H304z M297.5,450.1h4.6l-0.6-1.9l-1.5-5.2h-0.1l-1.6,5.2
		L297.5,450.1z"/>
</g>
</svg>
