<?xml version="1.0" encoding="utf-8"?>
<!-- Generator: Adobe Illustrator 27.1.1, SVG Export Plug-In . SVG Version: 6.00 Build 0)  -->
<svg version="1.1" id="Layer_1" xmlns="http://www.w3.org/2000/svg" xmlns:xlink="http://www.w3.org/1999/xlink" x="0px" y="0px"
	 width="417px" height="529px" viewBox="0 0 417 529" style="enable-background:new 0 0 417 529;" xml:space="preserve">
<style type="text/css">
	.st0{fill:url(#SVGID_1_);}
	.st1{fill:url(#SVGID_00000132795292916898824040000001882179436822383038_);}
	.st2{fill:url(#SVGID_00000070085381095179081020000008269365914229936033_);}
	.st3{fill-rule:evenodd;clip-rule:evenodd;fill:#979797;}
	.st4{fill:#F8DF38;}
	.st5{fill:url(#SVGID_00000118367332717524112820000009305874991443037885_);}
	.st6{fill:#D5D4D3;}
	.st7{fill:url(#SVGID_00000125579061427999028470000014157591748581192580_);}
	.st8{fill:url(#SVGID_00000150077008286576323030000001780388171195761816_);}
	.st9{fill:url(#SVGID_00000117662526366841850180000013813911181023731386_);}
	.st10{fill-rule:evenodd;clip-rule:evenodd;fill:#34B44C;}
	.st11{fill-rule:evenodd;clip-rule:evenodd;fill:#828485;}
	.st12{fill:#FCDC00;}
	.st13{fill:#E1E0E1;}
	.st14{fill:#828485;}
	.st15{fill:#FADB00;}
	.st16{fill-rule:evenodd;clip-rule:evenodd;fill:#121921;}
	.st17{fill:#121921;}
	.st18{fill-rule:evenodd;clip-rule:evenodd;}
	.st19{fill-rule:evenodd;clip-rule:evenodd;fill:url(#SVGID_00000183223729583201447870000017836991476953921460_);}
	.st20{fill:#B3B2B3;}
	.st21{fill-rule:evenodd;clip-rule:evenodd;fill:url(#SVGID_00000109724829272471283260000006573939707436825014_);}
	.st22{fill-rule:evenodd;clip-rule:evenodd;fill:#B3B1B3;}
	.st23{fill-rule:evenodd;clip-rule:evenodd;fill:url(#SVGID_00000039849827559166238770000006431478722297427364_);}
	.st24{fill:#B3B1B3;}
	.st25{fill-rule:evenodd;clip-rule:evenodd;fill:url(#SVGID_00000018227713488206943420000010039440595634652075_);}
	.st26{fill-rule:evenodd;clip-rule:evenodd;fill:url(#SVGID_00000012467847171715002980000008835193641249031821_);}
	.st27{fill-rule:evenodd;clip-rule:evenodd;fill:url(#SVGID_00000166673560340794405850000002123898763179750331_);}
	.st28{fill-rule:evenodd;clip-rule:evenodd;fill:url(#SVGID_00000164511884073904952720000005825761283958834073_);}
	.st29{fill-rule:evenodd;clip-rule:evenodd;fill:url(#SVGID_00000044170953789813496020000008524162745076500377_);}
	.st30{fill-rule:evenodd;clip-rule:evenodd;fill:url(#SVGID_00000127729044936919655010000008939731462926184589_);}
	.st31{fill-rule:evenodd;clip-rule:evenodd;fill:url(#SVGID_00000103975940600693517740000007706442774951279285_);}
	.st32{fill-rule:evenodd;clip-rule:evenodd;fill:url(#SVGID_00000041285454372263976820000002142934317572361392_);}
	.st33{fill-rule:evenodd;clip-rule:evenodd;fill:url(#SVGID_00000060729221282349223470000017913306554035447476_);}
	.st34{fill-rule:evenodd;clip-rule:evenodd;fill:url(#SVGID_00000031177179386556206430000008717825333642675344_);}
	.st35{fill-rule:evenodd;clip-rule:evenodd;fill:url(#SVGID_00000007424743384788131410000002616833439898419343_);}
	.st36{fill-rule:evenodd;clip-rule:evenodd;fill:url(#SVGID_00000161604842957879147130000007110267987382131118_);}
	.st37{fill-rule:evenodd;clip-rule:evenodd;fill:url(#SVGID_00000044159701555400371790000001195138877988866955_);}
	.st38{fill-rule:evenodd;clip-rule:evenodd;fill:url(#SVGID_00000047039710973219584620000000096893726945640866_);}
	.st39{fill-rule:evenodd;clip-rule:evenodd;fill:url(#SVGID_00000098220125708219708250000014441711082962534295_);}
	.st40{fill-rule:evenodd;clip-rule:evenodd;fill:url(#SVGID_00000169558801446889397200000011535636522851656330_);}
	.st41{fill-rule:evenodd;clip-rule:evenodd;fill:url(#SVGID_00000030457791367974833130000008982345653529075356_);}
	.st42{fill-rule:evenodd;clip-rule:evenodd;fill:url(#SVGID_00000108290787866427412780000006816220589956820868_);}
	.st43{fill:#0F1824;}
	.st44{fill-rule:evenodd;clip-rule:evenodd;fill:#8FC742;}
	.st45{fill:#FFFFFF;}
	.st46{fill:none;}
</style>
<linearGradient id="SVGID_1_" gradientUnits="userSpaceOnUse" x1="111.3063" y1="133.7885" x2="230.0912" y2="252.5733">
	<stop  offset="0.1" style="stop-color:#0C1623"/>
	<stop  offset="0.72" style="stop-color:#2FB34E"/>
</linearGradient>
<path style="fill-rule:evenodd;clip-rule:evenodd;fill:url(#SVGID_1_);" d="M338.5,144.1l-212,212L105,343.9
	c-3.9-2.2-6.3-6.4-6.3-10.9V151.6c0-6.9,5.6-12.5,12.4-12.5h217.5C332.7,139.1,336.3,141.1,338.5,144.1z"/>
<path class="st22" d="M328.6,117.3H111.1c-0.4,0-0.9,0-1.3,0c-18.3,0.7-32.9,15.8-32.9,34.3V333c0,12.4,6.6,23.8,17.4,29.9
	L203,424.6c10.4,5.9,23.2,5.9,33.6,0l108.8-61.7c10.7-6.1,17.4-17.5,17.4-29.9V151.6C362.8,132.7,347.5,117.3,328.6,117.3z M341,333
	c0,4.5-2.4,8.6-6.3,10.9l-22.9,13L226,405.6c-3.8,2.2-8.4,2.2-12.2,0l-61.4-34.8L105,343.9c-3.9-2.2-6.3-6.4-6.3-10.9V151.6
	c0-6.9,5.6-12.5,12.4-12.5h217.5c6.9,0,12.4,5.6,12.4,12.5V333z"/>
<path d="M347.8,257.2c-2,1.7-4.7,4.5-6.7,8.4c-2,3.8-3.4,8.6-3,14.4c-4.2,1.8-12,11.5-11.6,20.2c-20.1,10.8-22.1,35.8-14.9,55.8
	c0.1,0.3,0.2,0.6,0.3,0.9L226,405.6c-3.8,2.2-8.4,2.2-12.2,0l-61.4-34.8c-5.8-52.2,20.1-87.6,43.8-114.6
	c25.4-28.9,23.1-53.4,11.3-53c-9.5,0.3-12.3,2.6-12.5,3.7c-1.6,5.6-7.8,18.4-19.7,24.5c-14.8,7.6-23.2,3.5-27.2,5.1
	c-4,1.6-4.7,7.3-18.8,9.8c-10.5,1.9-23.3,17.6-30.5,29.2c-2.5,4-4.4,7.5-5.3,9.8c-2.6,6.5-9.9,12.3-16.5,14.8c-2.5,0.9-5,1.4-7,1.2
	c-7.3-0.7-15.4-20.7-15.4-20.7c-1.1-2.3-1.6-8.1,4.8-12.9c4.3-3.2,11.5-10.1,17.6-19.4c5.3-8.2,9.8-18.2,10.5-29.3
	c1.6-23.8-2.6-36.3,1.1-51c3.2-12.6,17.7-33.6,21.3-50.5c0.6-2.8,0.9-5.5,0.8-8c3,1.9,7.6,4.9,11.7,8c4.4,3.2,8.3,6.4,9.4,8.3
	c0.1-2,0.4-4.9,1.1-8.3c1.4-6.9,4.1-15.8,9.1-22.6c9.3-12.8,10-21.3,7.3-26.5c12.5,3.3,39.1,12.6,45.2,23.6
	c4.8-3.3,16.9-10,27.3-10.2c10.4-0.2,16.1-3.6,17.6-5.3c1,7.4,5.3,23.6,14.6,29.2c9.4,5.6,20.1,3.8,24.2,2.2
	c0.3,2.7,1.1,6.1,2.7,9.6c3.8,8.9,12,18.3,27.2,17.6c0,1.3,0.1,2.7,0.2,4.2c0.9,10.8,5.5,27.3,18.8,30.7c0.9,6.3,4.9,18.2,13.9,24.1
	c2.1,1.4,4.4,2.4,7,3c-1.9,7.7-4,24.6,2.2,30.6C348.1,233.6,343,248,347.8,257.2z"/>
<path class="st12" d="M134.8,176.2c3.2,3.1,7.2,6.8,3.8,15.4c-3.3,8.6-15.6,7.3-18.8,4.3c-3.2-3.1,0.8-8.9,7-15.4
	C133.1,173.9,131.6,173.1,134.8,176.2L134.8,176.2z"/>
<g>
	<path class="st13" d="M360.3,473.9H79.6c-1.5,0-2.8-1.3-2.8-2.8V418c0-1.5,1.3-2.8,2.8-2.8h280.7c1.5,0,2.8,1.3,2.8,2.8v53.1
		C363.1,472.7,361.9,473.9,360.3,473.9z"/>
</g>
<g>
	<path d="M117.5,450.6c0,1.6,1.3,2.6,3.3,2.6c1.7,0,2.8-0.8,2.8-2c0-0.7-0.3-1.1-0.8-1.4c-0.5-0.3-0.7-0.3-1.3-0.4l-2.6-0.6
		l-0.8-0.2l-0.9-0.3c-0.4-0.1-0.7-0.3-1-0.4c-0.5-0.3-1.3-0.8-1.6-1.4c-0.4-0.6-0.7-1.5-0.7-2.5c0-1.6,0.6-2.8,1.8-3.8
		c1.2-0.9,2.7-1.4,4.7-1.4s3.5,0.5,4.7,1.4c1.2,0.9,1.8,2.1,1.8,3.6h-3.8c-0.1-1.3-1.2-2.1-2.8-2.1c-1.6,0-2.5,0.7-2.5,1.7
		c0,0.5,0.3,0.9,0.6,1.1c0.1,0.1,0.3,0.2,0.6,0.3l0.6,0.2l0.6,0.1l2.8,0.6c3,0.6,4.6,2.2,4.6,4.8c0,1.7-0.6,3-1.9,4
		c-1.2,0.9-2.9,1.4-5,1.4c-2.2,0-3.9-0.5-5.1-1.5c-1.3-1-1.9-2.3-1.9-4H117.5z"/>
	<path d="M140.4,455.9l-1-2.9h-6.5l-1,2.9H128l5.9-16.8h4.3l6.1,16.8H140.4z M133.8,450.1h4.6l-0.6-1.9l-1.5-5.2h-0.1l-1.6,5.2
		L133.8,450.1z"/>
	<path d="M148.9,455.9l-5.9-16.8h4.1l2.3,6.9l1.7,6.2h0.2l1.8-6.2l2.2-6.9h4.1l-5.9,16.8H148.9z"/>
	<path d="M165.6,455.9l-5.9-16.8h4.1l2.3,6.9l1.7,6.2h0.2l1.8-6.2l2.2-6.9h4.1l-5.9,16.8H165.6z"/>
	<path d="M176.2,439.2h4.4l1.8,3.5l1.8,3.6h0.2l3.6-7h4.4l-6.3,10.3v6.4h-3.7v-6.4L176.2,439.2z"/>
	<path d="M201.9,450.6c0,1.6,1.3,2.6,3.3,2.6c1.7,0,2.8-0.8,2.8-2c0-0.7-0.3-1.1-0.8-1.4c-0.5-0.3-0.7-0.3-1.3-0.4l-2.6-0.6
		l-0.8-0.2l-0.9-0.3c-0.4-0.1-0.7-0.3-1-0.4c-0.5-0.3-1.3-0.8-1.6-1.4c-0.4-0.6-0.7-1.5-0.7-2.5c0-1.6,0.6-2.8,1.8-3.8
		c1.2-0.9,2.7-1.4,4.7-1.4s3.5,0.5,4.7,1.4c1.2,0.9,1.8,2.1,1.8,3.6h-3.8c-0.1-1.3-1.2-2.1-2.8-2.1c-1.6,0-2.5,0.7-2.5,1.7
		c0,0.5,0.3,0.9,0.6,1.1c0.1,0.1,0.3,0.2,0.6,0.3l0.6,0.2l0.6,0.1l2.8,0.6c3,0.6,4.6,2.2,4.6,4.8c0,1.7-0.6,3-1.9,4
		c-1.2,0.9-2.9,1.4-5,1.4c-2.2,0-3.9-0.5-5.1-1.5c-1.3-1-1.9-2.3-1.9-4H201.9z"/>
	<path d="M214.6,455.9v-16.8h11.9v3.2h-8.1v3.4h7v3h-7v4h8.1v3.2H214.6z"/>
	<path d="M239.9,455.9l-1-2.9h-6.5l-1,2.9h-3.8l5.9-16.8h4.3l6.1,16.8H239.9z M233.4,450.1h4.6l-0.6-1.9l-1.5-5.2h-0.1l-1.6,5.2
		L233.4,450.1z"/>
	<path d="M245.3,455.9v-16.8h3.7v6.8h7.6v-6.8h3.7v16.8h-3.7v-7.1H249v7.1H245.3z"/>
	<path d="M262.8,447.6c0-2.6,0.7-4.7,2.2-6.3c1.5-1.6,3.5-2.3,6-2.3c2.5,0,4.5,0.8,5.9,2.3c1.5,1.5,2.2,3.6,2.2,6.3
		c0,2.6-0.7,4.7-2.2,6.3c-1.4,1.5-3.4,2.3-6,2.3c-2.5,0-4.5-0.8-6-2.3C263.6,452.3,262.8,450.2,262.8,447.6z M266.8,448.7
		c0,2.6,1.7,4.2,4.2,4.2c2.7,0,4.3-1.6,4.3-4.2v-2.4c0-2.6-1.7-4.2-4.3-4.2c-2.7,0-4.2,1.6-4.2,4.2V448.7z"/>
	<path d="M281.7,455.9v-16.8h8.6c3.3,0,5.1,1.9,5.1,4.9c0,2-1,3.5-2.6,4v0.2h0.6c1.3,0,2,0.7,2,2.2v5.5h-3.8V450h-6.2v5.9H281.7z
		 M285.4,447h3.9c1.4,0,2.2-0.7,2.2-1.8v-1.1c0-1.2-0.7-1.8-2.2-1.8h-3.9V447z"/>
	<path d="M301.3,450.6c0,1.6,1.3,2.6,3.3,2.6c1.7,0,2.8-0.8,2.8-2c0-0.7-0.3-1.1-0.8-1.4c-0.5-0.3-0.7-0.3-1.3-0.4l-2.6-0.6
		l-0.8-0.2l-0.9-0.3c-0.4-0.1-0.7-0.3-1-0.4c-0.5-0.3-1.3-0.8-1.6-1.4c-0.4-0.6-0.7-1.5-0.7-2.5c0-1.6,0.6-2.8,1.8-3.8
		c1.2-0.9,2.7-1.4,4.7-1.4s3.5,0.5,4.7,1.4c1.2,0.9,1.8,2.1,1.8,3.6H307c-0.1-1.3-1.2-2.1-2.8-2.1c-1.6,0-2.5,0.7-2.5,1.7
		c0,0.5,0.3,0.9,0.6,1.1c0.1,0.1,0.3,0.2,0.6,0.3l0.6,0.2l0.6,0.1l2.8,0.6c3,0.6,4.6,2.2,4.6,4.8c0,1.7-0.6,3-1.9,4
		c-1.2,0.9-2.9,1.4-5,1.4c-2.2,0-3.9-0.5-5.1-1.5c-1.3-1-1.9-2.3-1.9-4H301.3z"/>
	<path d="M314,455.9v-16.8h11.9v3.2h-8.1v3.4h7v3h-7v4h8.1v3.2H314z"/>
</g>
</svg>
