<?xml version="1.0" encoding="utf-8"?>
<!-- Generator: Adobe Illustrator 27.1.1, SVG Export Plug-In . SVG Version: 6.00 Build 0)  -->
<svg version="1.1" id="Layer_1" xmlns="http://www.w3.org/2000/svg" xmlns:xlink="http://www.w3.org/1999/xlink" x="0px" y="0px"
	 width="417px" height="529px" viewBox="0 0 417 529" style="enable-background:new 0 0 417 529;" xml:space="preserve">
<style type="text/css">
	.st0{fill:url(#SVGID_1_);}
	.st1{fill:url(#SVGID_00000163768559930170989200000018354237339923825815_);}
	.st2{fill:url(#SVGID_00000093888711714466244050000001626991509897246852_);}
	.st3{fill-rule:evenodd;clip-rule:evenodd;fill:#979797;}
	.st4{fill:#F8DF38;}
	.st5{fill:url(#SVGID_00000105417201551917194070000013573244925955079819_);}
	.st6{fill:#D5D4D3;}
	.st7{fill:url(#SVGID_00000134232027495290912490000004391314938689578417_);}
	.st8{fill:url(#SVGID_00000032611117425397071740000004659847845929885883_);}
	.st9{fill:url(#SVGID_00000072245458137019751520000010000330699889264789_);}
	.st10{fill-rule:evenodd;clip-rule:evenodd;fill:#34B44C;}
	.st11{fill-rule:evenodd;clip-rule:evenodd;fill:#828485;}
	.st12{fill:#FCDC00;}
	.st13{fill:#E1E0E1;}
	.st14{fill:#828485;}
	.st15{fill:#FADB00;}
	.st16{fill-rule:evenodd;clip-rule:evenodd;fill:#121921;}
	.st17{fill:#121921;}
	.st18{fill-rule:evenodd;clip-rule:evenodd;}
	.st19{fill-rule:evenodd;clip-rule:evenodd;fill:url(#SVGID_00000153707639146876736850000004515033660055900081_);}
	.st20{fill:#B3B2B3;}
	.st21{fill-rule:evenodd;clip-rule:evenodd;fill:url(#SVGID_00000171677646898570869790000001577741261212591238_);}
	.st22{fill-rule:evenodd;clip-rule:evenodd;fill:#B3B1B3;}
	.st23{fill-rule:evenodd;clip-rule:evenodd;fill:url(#SVGID_00000170973183429449875230000009402684546085993633_);}
	.st24{fill:#B3B1B3;}
	.st25{fill-rule:evenodd;clip-rule:evenodd;fill:url(#SVGID_00000088818264601945708060000000877515879288137618_);}
	.st26{fill-rule:evenodd;clip-rule:evenodd;fill:url(#SVGID_00000062885618598729323380000014901265723662514081_);}
	.st27{fill-rule:evenodd;clip-rule:evenodd;fill:url(#SVGID_00000067933345852286553990000011425489805316462515_);}
	.st28{fill-rule:evenodd;clip-rule:evenodd;fill:url(#SVGID_00000005955286010807926470000000985365289771860374_);}
	.st29{fill-rule:evenodd;clip-rule:evenodd;fill:url(#SVGID_00000127016403546967380230000000947826828275369371_);}
	.st30{fill-rule:evenodd;clip-rule:evenodd;fill:url(#SVGID_00000183941951149137721690000015000708229622855567_);}
	.st31{fill-rule:evenodd;clip-rule:evenodd;fill:url(#SVGID_00000015338345343568088810000009209222966479453330_);}
	.st32{fill-rule:evenodd;clip-rule:evenodd;fill:url(#SVGID_00000118362875559021276460000005268374157247684775_);}
	.st33{fill-rule:evenodd;clip-rule:evenodd;fill:url(#SVGID_00000127756988292574660680000003549500538235012010_);}
	.st34{fill-rule:evenodd;clip-rule:evenodd;fill:url(#SVGID_00000133529600971239351780000000689870219665509025_);}
	.st35{fill-rule:evenodd;clip-rule:evenodd;fill:url(#SVGID_00000073687375852415239920000008333235341883542158_);}
	.st36{fill-rule:evenodd;clip-rule:evenodd;fill:url(#SVGID_00000134241421844428034600000003881777326861665955_);}
	.st37{fill-rule:evenodd;clip-rule:evenodd;fill:url(#SVGID_00000164480016840914789570000003354577297969668482_);}
	.st38{fill-rule:evenodd;clip-rule:evenodd;fill:url(#SVGID_00000036947874990707477550000012815624358277101749_);}
	.st39{fill-rule:evenodd;clip-rule:evenodd;fill:url(#SVGID_00000005230079151599011520000001165164350173874827_);}
	.st40{fill-rule:evenodd;clip-rule:evenodd;fill:url(#SVGID_00000180354040959650157320000009787196201841137540_);}
	.st41{fill-rule:evenodd;clip-rule:evenodd;fill:url(#SVGID_00000065784562714576206170000004433281690320415923_);}
	.st42{fill-rule:evenodd;clip-rule:evenodd;fill:url(#SVGID_00000070807153027045228040000007470182656638597541_);}
	.st43{fill:#0F1824;}
	.st44{fill-rule:evenodd;clip-rule:evenodd;fill:#8FC742;}
	.st45{fill:#FFFFFF;}
	.st46{fill:none;}
</style>
<linearGradient id="SVGID_1_" gradientUnits="userSpaceOnUse" x1="110.3513" y1="133.7885" x2="229.1362" y2="252.5733">
	<stop  offset="0.1" style="stop-color:#0C1623"/>
	<stop  offset="0.72" style="stop-color:#2FB34E"/>
</linearGradient>
<path style="fill-rule:evenodd;clip-rule:evenodd;fill:url(#SVGID_1_);" d="M337.6,144.1l-212,212L104,343.9
	c-3.9-2.2-6.3-6.4-6.3-10.9V151.6c0-6.9,5.6-12.5,12.4-12.5h217.5C331.7,139.1,335.3,141.1,337.6,144.1z"/>
<path class="st22" d="M343.4,121.1c-4.7-2.5-10.1-3.9-15.7-3.9H110.1c-0.4,0-0.9,0-1.3,0C90.6,118,76,133.1,76,151.6V333
	c0,12.4,6.6,23.8,17.4,29.9l10.9,6.2l44.7,25.4l53.1,30.1c10.4,5.9,23.2,5.9,33.6,0l108.8-61.7c10.7-6.1,17.4-17.5,17.4-29.9V151.6
	C361.8,138.4,354.3,126.8,343.4,121.1z M97.7,151.6c0-6.9,5.6-12.5,12.4-12.5h217.5c0.6,0,1.2,0,1.8,0.1c4.2,0.6,7.7,3.3,9.4,7
	c0.8,1.6,1.2,3.4,1.2,5.4v134.5V333c0,0.3,0,0.6,0,0.9c-0.3,4.1-2.7,7.9-6.3,9.9l-7.8,4.4l-15.1,8.6L231,402.2l-6,3.4
	c-3.8,2.2-8.4,2.2-12.2,0l-50-28.3l-11.5-6.5l-5.8-3.3L104,343.9c-0.8-0.4-1.5-0.9-2.1-1.5c0,0-0.1-0.1-0.1-0.1
	c-2.6-2.4-4.1-5.7-4.1-9.3V151.6z"/>
<g>
	<path class="st13" d="M359.4,473.9H78.7c-1.5,0-2.8-1.3-2.8-2.8V418c0-1.5,1.3-2.8,2.8-2.8h280.7c1.5,0,2.8,1.3,2.8,2.8v53.1
		C362.2,472.7,360.9,473.9,359.4,473.9z"/>
</g>
<g>
	<path d="M136.2,455.9l-5.9-16.8h4.1l2.3,6.9l1.7,6.2h0.2l1.8-6.2l2.2-6.9h4.1l-5.9,16.8H136.2z"/>
	<path d="M148.1,455.9v-16.8H160v3.2h-8.1v3.4h7v3h-7v4h8.1v3.2H148.1z"/>
	<path d="M161.4,455.9l4.8-8.4l-5-8.4h4.6l1.7,3.2l1.5,3h0.2l1.5-3.1l1.7-3.2h4.5l-4.9,8.4l5,8.4h-4.6l-1.4-2.6l-1.8-3.4h-0.1
		l-1.8,3.4l-1.4,2.6H161.4z"/>
	<path d="M190.2,439.2v3.2h-4.6v13.5h-3.7v-13.5h-4.6v-3.2H190.2z"/>
	<path d="M191.9,455.9v-16.8h8.6c3.3,0,5.1,1.9,5.1,4.9c0,2-1,3.5-2.6,4v0.2h0.6c1.3,0,2,0.7,2,2.2v5.5h-3.8V450h-6.2v5.9H191.9z
		 M195.6,447h3.9c1.4,0,2.2-0.7,2.2-1.8v-1.1c0-1.2-0.7-1.8-2.2-1.8h-3.9V447z"/>
	<path d="M212.5,455.9h-3.7v-16.8h3.7V455.9z"/>
	<path d="M215,447.6c0-2.6,0.7-4.7,2.2-6.3c1.5-1.6,3.5-2.3,6-2.3c2.5,0,4.5,0.8,5.9,2.3c1.5,1.5,2.2,3.6,2.2,6.3
		c0,2.6-0.7,4.7-2.2,6.3c-1.4,1.5-3.4,2.3-6,2.3c-2.5,0-4.5-0.8-6-2.3C215.8,452.3,215,450.2,215,447.6z M219,448.7
		c0,2.6,1.7,4.2,4.2,4.2c2.7,0,4.3-1.6,4.3-4.2v-2.4c0-2.6-1.7-4.2-4.3-4.2c-2.7,0-4.2,1.6-4.2,4.2V448.7z"/>
	<path d="M243,455.9l-5.9-16.8h4.1l2.3,6.9l1.7,6.2h0.2l1.8-6.2l2.2-6.9h4.1l-5.9,16.8H243z"/>
	<path d="M258.7,455.9H255v-16.8h3.7V455.9z"/>
	<path d="M262.2,455.9v-16.8h7.9c3.7,0,5.7,2.1,5.7,5.7c0,3.5-2.1,5.6-5.7,5.6H266v5.4H262.2z M266,447.4h3.7c1.4,0,2.2-0.8,2.2-1.9
		v-1.2c0-1.2-0.8-1.8-2.2-1.8H266V447.4z"/>
	<path d="M278.1,455.9v-16.8h11.9v3.2h-8.1v3.4h7v3h-7v4h8.1v3.2H278.1z"/>
	<path d="M292.8,455.9v-16.8h8.6c3.3,0,5.1,1.9,5.1,4.9c0,2-1,3.5-2.6,4v0.2h0.6c1.3,0,2,0.7,2,2.2v5.5h-3.8V450h-6.2v5.9H292.8z
		 M296.5,447h3.9c1.4,0,2.2-0.7,2.2-1.8v-1.1c0-1.2-0.7-1.8-2.2-1.8h-3.9V447z"/>
</g>
<path class="st12" d="M136.6,261.7c-6.3,5.5-15.6-0.6-16.9-4.5c-1.3-3.8,4.4-6.8,12.1-9.4c7.8-2.7,6.8-4,8.1-0.1v0
	C141.2,251.5,142.8,256.1,136.6,261.7z"/>
<path class="st18" d="M344,122.2c-0.2-0.4-0.4-0.7-0.6-1.1c-10.1-18.5-26.9-33.5-48.3-35.2c-36.1-2.9-65.4,10.4-86,31.3
	c-0.3,0.3-0.7,0.7-1,1c-6.2,6.4-11.5,13.4-16.1,20.9c-0.2,0.3-0.4,0.7-0.6,1c-12.3,20.5-18.3,44.3-17.1,66.4c0,0.7,0.1,1.4,0.1,2.1
	c2.1,28.4,11.5,48.8,22.3,63.7c10,13.8,21.1,22.9,29,29.3c1.1,0.9,2.1,1.7,3.1,2.5c0,0-73,10.6-126.9,38.1c0,0,0.1,0.1,0.1,0.1
	c0.6,0.6,1.4,1.1,2.1,1.5l41.5,23.5l5.8,3.3l11.5,6.5l50,28.3c3.8,2.2,8.4,2.2,12.2,0l6-3.4l79.9-45.3l15.1-8.6l7.8-4.4
	c3.6-2.1,6-5.8,6.3-9.9c0-0.3,0-0.6,0-0.9v-46.9c-16.4-21.4-42.8-40.1-55.4-49c23-8.6,42.9-20.7,55.4-36.5c0.2-0.2,0.3-0.4,0.4-0.5
	c8.3-10.6,13.2-22.8,13.7-36.7C354.7,150.5,351,135.5,344,122.2z M257.7,178.7c-2.6-7.7-0.5-25.9,29.2-37.8
	C286.9,149.7,281.1,169.6,257.7,178.7z"/>
<path d="M222.9,243.5l-21-35.2c-14.5-9.9-31.5,1.7-47,2c-9.4,0.1-3.2-4.5-27,0.9c-23.8,5.4-18,5.8-25.3,11.9
	c-7.3,6.1-15,9.2-19.3,9.8c-4.3,0.6-13.1,5.1-11.7,14.3c-10.3,11-9.7,19.7-4.2,30.8c2.9,5.9,6.2,11,8.6,14.5
	c-4.9,3.7-9.4,8-13.5,12.7c-3.2,3.2-5.8,6.1-7.6,10.1c-0.8,1.8,2.5,5.8,3.1,4.3c0.8-2.3,1.8-4.9,3.7-7.5c-0.9,3.5-0.6,6.6-0.8,9.8
	c-0.1,2,4.4-0.5,4.5-2c0-3.9-1.3-6.7,2.2-11.9c3.8-4.3,8-8.2,12.6-11.6c15.6,1.9,52.3,2.2,84.8-10.5
	C206.7,269.8,227.5,257.3,222.9,243.5z M136.6,261.7c-6.3,5.5-15.6-0.6-16.9-4.5c-1.3-3.8,4.4-6.8,12.1-9.4c7.8-2.7,6.8-4,8.1-0.1v0
	C141.2,251.5,142.8,256.1,136.6,261.7z"/>
</svg>
